<svg xmlns="http://www.w3.org/2000/svg" xmlns:xlink="http://www.w3.org/1999/xlink" width="500" zoomAndPan="magnify" viewBox="0 0 375 187.499995" height="250" preserveAspectRatio="xMidYMid meet" version="1.0"><defs><g/><clipPath id="42cbe22384"><path d="M 346 67 L 374.5 67 L 374.5 69 L 346 69 Z M 346 67 " clip-rule="nonzero"/></clipPath><clipPath id="5487e00721"><path d="M 0.5 66 L 28 66 L 28 68 L 0.5 68 Z M 0.5 66 " clip-rule="nonzero"/></clipPath></defs><path stroke-linecap="butt" transform="matrix(0.748005, 0, 0, 0.748005, 285.016445, 46.345004)" fill="none" stroke-linejoin="miter" d="M -0.00109691 1.000991 L 78.415797 1.000991 " stroke="#737373" stroke-width="2" stroke-opacity="1" stroke-miterlimit="4"/><path stroke-linecap="butt" transform="matrix(0.748005, 0, 0, 0.748005, 280.558626, 50.238604)" fill="none" stroke-linejoin="miter" d="M -0.000043283 1.002235 L 78.416851 1.002235 " stroke="#737373" stroke-width="2" stroke-opacity="1" stroke-miterlimit="4"/><path stroke-linecap="butt" transform="matrix(0, 0.748005, -0.748005, 0, 344.629952, 46.426466)" fill="none" stroke-linejoin="miter" d="M -0.000914948 0.998843 L 55.323311 0.998843 " stroke="#737373" stroke-width="2" stroke-opacity="1" stroke-miterlimit="4"/><path stroke-linecap="butt" transform="matrix(0.748005, 0, 0, 0.748005, 327.436526, 71.419016)" fill="none" stroke-linejoin="miter" d="M 0.00130279 1.001266 L 58.73564 1.001266 " stroke="#737373" stroke-width="2" stroke-opacity="1" stroke-miterlimit="4"/><path stroke-linecap="butt" transform="matrix(0, 0.748005, -0.748005, 0, 371.425195, 72.171376)" fill="none" stroke-linejoin="miter" d="M 0.000667725 1.001883 L 78.417562 1.001883 " stroke="#737373" stroke-width="2" stroke-opacity="1" stroke-miterlimit="4"/><path stroke-linecap="butt" transform="matrix(0, 0.748005, -0.748005, 0, 367.547313, 75.13704)" fill="none" stroke-linejoin="miter" d="M -0.000430131 0.998031 L 78.416464 0.998031 " stroke="#737373" stroke-width="2" stroke-opacity="1" stroke-miterlimit="4"/><path stroke-linecap="butt" transform="matrix(0, 0.748005, -0.748005, 0, 328.872607, 72.168688)" fill="none" stroke-linejoin="miter" d="M -0.000960897 0.999468 L 20.924485 0.999468 " stroke="#737373" stroke-width="2" stroke-opacity="1" stroke-miterlimit="4"/><path stroke-linecap="butt" transform="matrix(-0.748005, 0, 0, -0.748005, 344.523771, 88.568003)" fill="none" stroke-linejoin="miter" d="M 0.000446014 0.999579 L 22.858114 0.999579 " stroke="#737373" stroke-width="2" stroke-opacity="1" stroke-miterlimit="4"/><g clip-path="url(#42cbe22384)"><path stroke-linecap="butt" transform="matrix(-0.748005, 0, 0, -0.748005, 374.490937, 68.841584)" fill="none" stroke-linejoin="miter" d="M -0.00167128 0.999771 L 36.935109 0.999771 " stroke="#737373" stroke-width="2" stroke-opacity="1" stroke-miterlimit="4"/></g><path stroke-linecap="butt" transform="matrix(0, 0.748005, -0.748005, 0, 348.307333, 43.708782)" fill="none" stroke-linejoin="miter" d="M -0.00234027 1.000981 L 33.069995 1.000981 " stroke="#737373" stroke-width="2" stroke-opacity="1" stroke-miterlimit="4"/><path stroke-linecap="butt" transform="matrix(0, -0.748005, 0.748005, 0, 4.194639, 129.32748)" fill="none" stroke-linejoin="miter" d="M -0.000862225 0.998344 L 78.416032 0.998344 " stroke="#737373" stroke-width="2" stroke-opacity="1" stroke-miterlimit="4"/><path stroke-linecap="butt" transform="matrix(0, -0.748005, 0.748005, 0, 8.088274, 133.785359)" fill="none" stroke-linejoin="miter" d="M 0.000271403 0.999543 L 78.417166 0.999543 " stroke="#737373" stroke-width="2" stroke-opacity="1" stroke-miterlimit="4"/><path stroke-linecap="butt" transform="matrix(0.748005, 0, 0, 0.748005, 4.276123, 69.713974)" fill="none" stroke-linejoin="miter" d="M 0.00163218 0.998608 L 55.325858 0.998608 " stroke="#737373" stroke-width="2" stroke-opacity="1" stroke-miterlimit="4"/><path stroke-linecap="butt" transform="matrix(0, -0.748005, 0.748005, 0, 29.272493, 86.911199)" fill="none" stroke-linejoin="miter" d="M 0.00139365 0.998707 L 58.735731 0.998707 " stroke="#737373" stroke-width="2" stroke-opacity="1" stroke-miterlimit="4"/><path stroke-linecap="butt" transform="matrix(0.748005, 0, 0, 0.748005, 30.020995, 42.918759)" fill="none" stroke-linejoin="miter" d="M -0.0019572 1.00161 L 78.420159 1.00161 " stroke="#737373" stroke-width="2" stroke-opacity="1" stroke-miterlimit="4"/><path stroke-linecap="butt" transform="matrix(0.748005, 0, 0, 0.748005, 32.986692, 46.796612)" fill="none" stroke-linejoin="miter" d="M 0.00212493 0.997796 L 78.419019 0.997796 " stroke="#737373" stroke-width="2" stroke-opacity="1" stroke-miterlimit="4"/><path stroke-linecap="butt" transform="matrix(0.748005, 0, 0, 0.748005, 30.020995, 85.473978)" fill="none" stroke-linejoin="miter" d="M -0.0019572 1.0009 L 20.928711 1.0009 " stroke="#737373" stroke-width="2" stroke-opacity="1" stroke-miterlimit="4"/><path stroke-linecap="butt" transform="matrix(0, 0.748005, -0.748005, 0, 46.416141, 69.818637)" fill="none" stroke-linejoin="miter" d="M 0.00224013 1.000223 L 22.859908 1.000223 " stroke="#737373" stroke-width="2" stroke-opacity="1" stroke-miterlimit="4"/><path stroke-linecap="butt" transform="matrix(0, 0.748005, -0.748005, 0, 26.690334, 39.852143)" fill="none" stroke-linejoin="miter" d="M -0.000775723 1.001233 L 36.936005 1.001233 " stroke="#737373" stroke-width="2" stroke-opacity="1" stroke-miterlimit="4"/><g clip-path="url(#5487e00721)"><path stroke-linecap="butt" transform="matrix(0.748005, 0, 0, 0.748005, 1.559221, 66.037412)" fill="none" stroke-linejoin="miter" d="M -0.00083884 0.999652 L 33.071497 0.999652 " stroke="#737373" stroke-width="2" stroke-opacity="1" stroke-miterlimit="4"/></g><path stroke-linecap="butt" transform="matrix(0.748005, 0, 0, 0.748005, 37.898939, 145.658364)" fill="none" stroke-linejoin="miter" d="M -0.000670237 0.99984 L 400.000691 0.99984 " stroke="#ffffff" stroke-width="2" stroke-opacity="1" stroke-miterlimit="4"/><g fill="#ffffff" fill-opacity="1"><g transform="translate(118.928231, 117.433672)"><g><path d="M 24.953125 -10.96875 C 24.953125 -8.78125 24.378906 -6.859375 23.234375 -5.203125 C 22.097656 -3.546875 20.5625 -2.265625 18.625 -1.359375 C 16.695312 -0.453125 14.582031 0 12.28125 0 L 1.015625 0 L 1.015625 -0.578125 C 2.171875 -0.597656 3 -0.785156 3.5 -1.140625 C 4 -1.503906 4.25 -2.195312 4.25 -3.21875 L 4.25 -18.765625 C 4.25 -19.785156 3.976562 -20.46875 3.4375 -20.8125 C 2.90625 -21.164062 2.097656 -21.34375 1.015625 -21.34375 L 1.015625 -21.921875 L 13.234375 -21.921875 C 15.679688 -21.921875 17.789062 -21.398438 19.5625 -20.359375 C 21.34375 -19.316406 22.6875 -17.957031 23.59375 -16.28125 C 24.5 -14.613281 24.953125 -12.84375 24.953125 -10.96875 Z M 7.6875 -20.171875 L 7.6875 -1.59375 C 8.75 -1.269531 9.898438 -1.109375 11.140625 -1.109375 C 13.097656 -1.109375 14.816406 -1.507812 16.296875 -2.3125 C 17.785156 -3.113281 18.9375 -4.242188 19.75 -5.703125 C 20.5625 -7.171875 20.96875 -8.863281 20.96875 -10.78125 C 20.96875 -12.695312 20.5625 -14.40625 19.75 -15.90625 C 18.9375 -17.40625 17.789062 -18.578125 16.3125 -19.421875 C 14.84375 -20.273438 13.148438 -20.703125 11.234375 -20.703125 C 9.953125 -20.703125 8.769531 -20.523438 7.6875 -20.171875 Z M 7.6875 -20.171875 "/></g></g></g><g fill="#ffffff" fill-opacity="1"><g transform="translate(145.187728, 117.433672)"><g><path d="M 18.890625 -16.203125 C 18.890625 -14.867188 18.429688 -13.71875 17.515625 -12.75 C 16.597656 -11.78125 15.207031 -11.0625 13.34375 -10.59375 L 18.40625 -4.3125 C 19.019531 -3.539062 19.539062 -2.925781 19.96875 -2.46875 C 20.394531 -2.007812 20.921875 -1.59375 21.546875 -1.21875 C 22.179688 -0.851562 22.878906 -0.640625 23.640625 -0.578125 L 23.640625 0 L 17.9375 0 L 9.671875 -10.28125 L 7.5625 -10.28125 L 7.5625 -3.15625 C 7.5625 -2.21875 7.800781 -1.550781 8.28125 -1.15625 C 8.757812 -0.769531 9.507812 -0.578125 10.53125 -0.578125 L 10.65625 -0.578125 L 10.65625 0 L 1.078125 0 L 1.078125 -0.578125 C 2.097656 -0.578125 2.859375 -0.753906 3.359375 -1.109375 C 3.859375 -1.472656 4.109375 -2.125 4.109375 -3.0625 L 4.109375 -18.921875 C 4.109375 -19.773438 3.859375 -20.390625 3.359375 -20.765625 C 2.859375 -21.148438 2.097656 -21.34375 1.078125 -21.34375 L 1.078125 -21.921875 L 11.328125 -21.921875 C 13.410156 -21.921875 15.191406 -21.453125 16.671875 -20.515625 C 18.148438 -19.578125 18.890625 -18.140625 18.890625 -16.203125 Z M 7.5625 -20.234375 L 7.5625 -11.359375 L 8.359375 -11.359375 C 10.503906 -11.359375 12.128906 -11.773438 13.234375 -12.609375 C 14.347656 -13.453125 14.90625 -14.617188 14.90625 -16.109375 C 14.90625 -17.410156 14.484375 -18.515625 13.640625 -19.421875 C 12.796875 -20.335938 11.609375 -20.796875 10.078125 -20.796875 C 9.253906 -20.796875 8.414062 -20.609375 7.5625 -20.234375 Z M 7.5625 -20.234375 "/></g></g></g><g fill="#ffffff" fill-opacity="1"><g transform="translate(169.788069, 117.433672)"><g><path d="M 11.203125 -21.34375 C 10.304688 -21.34375 9.625 -21.257812 9.15625 -21.09375 C 8.6875 -20.9375 8.351562 -20.648438 8.15625 -20.234375 C 7.96875 -19.828125 7.875 -19.226562 7.875 -18.4375 L 7.875 -3.1875 C 7.875 -2.46875 7.988281 -1.921875 8.21875 -1.546875 C 8.457031 -1.171875 8.8125 -0.921875 9.28125 -0.796875 C 9.75 -0.671875 10.390625 -0.597656 11.203125 -0.578125 L 11.203125 0 L 1.109375 0 L 1.109375 -0.578125 C 1.960938 -0.597656 2.617188 -0.671875 3.078125 -0.796875 C 3.535156 -0.921875 3.875 -1.171875 4.09375 -1.546875 C 4.320312 -1.921875 4.4375 -2.476562 4.4375 -3.21875 L 4.4375 -18.4375 C 4.4375 -19.226562 4.332031 -19.820312 4.125 -20.21875 C 3.925781 -20.625 3.597656 -20.90625 3.140625 -21.0625 C 2.679688 -21.226562 2.003906 -21.320312 1.109375 -21.34375 L 1.109375 -21.921875 L 11.203125 -21.921875 Z M 11.203125 -21.34375 "/></g></g></g><g fill="#ffffff" fill-opacity="1"><g transform="translate(182.072288, 117.433672)"><g><path d="M 20.96875 -5.75 L 20.96875 -18.890625 C 20.96875 -19.847656 20.796875 -20.488281 20.453125 -20.8125 C 20.109375 -21.144531 19.476562 -21.320312 18.5625 -21.34375 L 17.765625 -21.34375 L 17.765625 -21.921875 L 25.84375 -21.921875 L 25.84375 -21.34375 L 25.171875 -21.34375 C 24.316406 -21.34375 23.707031 -21.289062 23.34375 -21.1875 C 22.988281 -21.082031 22.738281 -20.832031 22.59375 -20.4375 C 22.457031 -20.039062 22.390625 -19.394531 22.390625 -18.5 L 22.390625 0.25 L 21.953125 0.25 L 6.28125 -17.390625 L 6.28125 -3.703125 C 6.28125 -2.515625 6.519531 -1.695312 7 -1.25 C 7.476562 -0.800781 8.300781 -0.578125 9.46875 -0.578125 L 9.46875 0 L 1.5625 0 L 1.5625 -0.578125 L 1.75 -0.578125 C 2.769531 -0.578125 3.546875 -0.757812 4.078125 -1.125 C 4.609375 -1.5 4.875 -2.1875 4.875 -3.1875 L 4.875 -18.796875 C 4.320312 -19.734375 3.695312 -20.390625 3 -20.765625 C 2.300781 -21.148438 1.441406 -21.34375 0.421875 -21.34375 L 0.421875 -21.921875 L 6.796875 -21.921875 Z M 20.96875 -5.75 "/></g></g></g><g fill="#ffffff" fill-opacity="1"><g transform="translate(208.331786, 117.433672)"><g><path d="M 11.296875 -21.34375 C 10.128906 -21.34375 9.289062 -21.171875 8.78125 -20.828125 C 8.269531 -20.492188 8.015625 -19.785156 8.015625 -18.703125 L 8.015625 -11.265625 C 10.054688 -12.941406 11.988281 -14.660156 13.8125 -16.421875 C 15.644531 -18.191406 16.5625 -19.503906 16.5625 -20.359375 C 16.5625 -20.722656 16.394531 -20.972656 16.0625 -21.109375 C 15.726562 -21.242188 15.242188 -21.320312 14.609375 -21.34375 L 14.609375 -21.921875 L 22.65625 -21.921875 L 22.65625 -21.34375 L 22.390625 -21.34375 C 21.753906 -21.300781 21.148438 -21.140625 20.578125 -20.859375 C 20.003906 -20.585938 19.421875 -20.175781 18.828125 -19.625 C 18.484375 -19.300781 17.882812 -18.691406 17.03125 -17.796875 C 15.96875 -16.710938 15.03125 -15.769531 14.21875 -14.96875 C 13.414062 -14.175781 12.441406 -13.28125 11.296875 -12.28125 L 19.5 -4.1875 C 20.5625 -3.132812 21.421875 -2.359375 22.078125 -1.859375 C 22.734375 -1.359375 23.351562 -1.019531 23.9375 -0.84375 C 24.53125 -0.664062 25.25 -0.578125 26.09375 -0.578125 L 26.09375 0 L 14.796875 0 L 14.796875 -0.578125 C 15.378906 -0.578125 15.84375 -0.664062 16.1875 -0.84375 C 16.539062 -1.019531 16.71875 -1.300781 16.71875 -1.6875 C 16.71875 -1.945312 16.644531 -2.171875 16.5 -2.359375 C 16.363281 -2.546875 16.097656 -2.84375 15.703125 -3.25 L 8.015625 -10.84375 L 8.015625 -3.1875 C 8.015625 -2.226562 8.25 -1.554688 8.71875 -1.171875 C 9.195312 -0.796875 10.003906 -0.597656 11.140625 -0.578125 L 11.140625 0 L 1.28125 0 L 1.28125 -0.578125 C 2.507812 -0.597656 3.363281 -0.785156 3.84375 -1.140625 C 4.320312 -1.503906 4.5625 -2.207031 4.5625 -3.25 L 4.5625 -18.703125 C 4.5625 -19.742188 4.300781 -20.441406 3.78125 -20.796875 C 3.257812 -21.160156 2.425781 -21.34375 1.28125 -21.34375 L 1.28125 -21.921875 L 11.296875 -21.921875 Z M 11.296875 -21.34375 "/></g></g></g><g fill="#ffffff" fill-opacity="1"><g transform="translate(234.591283, 117.433672)"><g><path d="M 8.046875 -22.390625 C 8.765625 -22.390625 9.390625 -22.320312 9.921875 -22.1875 C 10.453125 -22.050781 10.992188 -21.863281 11.546875 -21.625 C 11.828125 -21.519531 12.097656 -21.425781 12.359375 -21.34375 C 12.628906 -21.257812 12.867188 -21.21875 13.078125 -21.21875 C 13.585938 -21.21875 13.992188 -21.609375 14.296875 -22.390625 L 14.90625 -22.390625 L 14.90625 -15.125 L 14.296875 -15.125 C 14.191406 -16.25 13.851562 -17.273438 13.28125 -18.203125 C 12.71875 -19.128906 12.015625 -19.859375 11.171875 -20.390625 C 10.335938 -20.921875 9.441406 -21.1875 8.484375 -21.1875 C 7.441406 -21.1875 6.546875 -20.867188 5.796875 -20.234375 C 5.054688 -19.609375 4.6875 -18.851562 4.6875 -17.96875 C 4.6875 -16.925781 5.195312 -16.019531 6.21875 -15.25 C 6.945312 -14.71875 7.957031 -14.082031 9.25 -13.34375 C 10.394531 -12.632812 11.347656 -12.023438 12.109375 -11.515625 C 12.878906 -11.003906 13.597656 -10.453125 14.265625 -9.859375 C 14.859375 -9.285156 15.328125 -8.625 15.671875 -7.875 C 16.023438 -7.132812 16.203125 -6.367188 16.203125 -5.578125 C 16.203125 -4.492188 15.90625 -3.484375 15.3125 -2.546875 C 14.71875 -1.617188 13.90625 -0.878906 12.875 -0.328125 C 11.84375 0.210938 10.707031 0.484375 9.46875 0.484375 C 8.6875 0.484375 7.992188 0.410156 7.390625 0.265625 C 6.785156 0.128906 6.148438 -0.0507812 5.484375 -0.28125 C 4.765625 -0.539062 4.222656 -0.671875 3.859375 -0.671875 C 3.285156 -0.671875 2.847656 -0.285156 2.546875 0.484375 L 1.984375 0.484375 L 1.984375 -6.890625 L 2.546875 -6.890625 C 2.910156 -4.992188 3.628906 -3.492188 4.703125 -2.390625 C 5.773438 -1.285156 7.164062 -0.734375 8.875 -0.734375 C 10.082031 -0.734375 11.078125 -1.0625 11.859375 -1.71875 C 12.648438 -2.382812 13.046875 -3.21875 13.046875 -4.21875 C 13.046875 -4.726562 12.945312 -5.191406 12.75 -5.609375 C 12.5625 -6.035156 12.25 -6.492188 11.8125 -6.984375 C 11.40625 -7.410156 10.828125 -7.875 10.078125 -8.375 C 9.335938 -8.875 8.347656 -9.492188 7.109375 -10.234375 C 6.066406 -10.878906 5.269531 -11.382812 4.71875 -11.75 C 4.164062 -12.125 3.753906 -12.453125 3.484375 -12.734375 C 2.390625 -13.835938 1.84375 -15.164062 1.84375 -16.71875 C 1.84375 -17.78125 2.113281 -18.742188 2.65625 -19.609375 C 3.207031 -20.472656 3.945312 -21.148438 4.875 -21.640625 C 5.8125 -22.140625 6.867188 -22.390625 8.046875 -22.390625 Z M 8.046875 -22.390625 "/></g></g></g></svg>