<svg xmlns="http://www.w3.org/2000/svg" xmlns:xlink="http://www.w3.org/1999/xlink" width="500" zoomAndPan="magnify" viewBox="0 0 375 187.499995" height="250" preserveAspectRatio="xMidYMid meet" version="1.0"><defs><g/><clipPath id="a1a1d0a1eb"><path d="M 346 67 L 374.5 67 L 374.5 69 L 346 69 Z M 346 67 " clip-rule="nonzero"/></clipPath><clipPath id="a378b89642"><path d="M 0.5 66 L 28 66 L 28 68 L 0.5 68 Z M 0.5 66 " clip-rule="nonzero"/></clipPath></defs><path stroke-linecap="butt" transform="matrix(0.748005, 0, 0, 0.748005, 285.016445, 46.345004)" fill="none" stroke-linejoin="miter" d="M -0.00109691 1.000991 L 78.415797 1.000991 " stroke="#737373" stroke-width="2" stroke-opacity="1" stroke-miterlimit="4"/><path stroke-linecap="butt" transform="matrix(0.748005, 0, 0, 0.748005, 280.558626, 50.238604)" fill="none" stroke-linejoin="miter" d="M -0.000043283 1.002235 L 78.416851 1.002235 " stroke="#737373" stroke-width="2" stroke-opacity="1" stroke-miterlimit="4"/><path stroke-linecap="butt" transform="matrix(0, 0.748005, -0.748005, 0, 344.629952, 46.426466)" fill="none" stroke-linejoin="miter" d="M -0.000914948 0.998843 L 55.323311 0.998843 " stroke="#737373" stroke-width="2" stroke-opacity="1" stroke-miterlimit="4"/><path stroke-linecap="butt" transform="matrix(0.748005, 0, 0, 0.748005, 327.436526, 71.419076)" fill="none" stroke-linejoin="miter" d="M 0.00130279 1.001186 L 58.73564 1.001186 " stroke="#737373" stroke-width="2" stroke-opacity="1" stroke-miterlimit="4"/><path stroke-linecap="butt" transform="matrix(0, 0.748005, -0.748005, 0, 371.425195, 72.171347)" fill="none" stroke-linejoin="miter" d="M 0.000706125 1.001883 L 78.4176 1.001883 " stroke="#737373" stroke-width="2" stroke-opacity="1" stroke-miterlimit="4"/><path stroke-linecap="butt" transform="matrix(0, 0.748005, -0.748005, 0, 367.547313, 75.137012)" fill="none" stroke-linejoin="miter" d="M -0.000391731 0.998031 L 78.416503 0.998031 " stroke="#737373" stroke-width="2" stroke-opacity="1" stroke-miterlimit="4"/><path stroke-linecap="butt" transform="matrix(0, 0.748005, -0.748005, 0, 328.872607, 72.168716)" fill="none" stroke-linejoin="miter" d="M -0.000999297 0.999468 L 20.924447 0.999468 " stroke="#737373" stroke-width="2" stroke-opacity="1" stroke-miterlimit="4"/><path stroke-linecap="butt" transform="matrix(-0.748005, 0, 0, -0.748005, 344.523771, 88.568032)" fill="none" stroke-linejoin="miter" d="M 0.000446014 0.999617 L 22.858114 0.999617 " stroke="#737373" stroke-width="2" stroke-opacity="1" stroke-miterlimit="4"/><g clip-path="url(#a1a1d0a1eb)"><path stroke-linecap="butt" transform="matrix(-0.748005, 0, 0, -0.748005, 374.490937, 68.841613)" fill="none" stroke-linejoin="miter" d="M -0.00167128 0.999809 L 36.935109 0.999809 " stroke="#737373" stroke-width="2" stroke-opacity="1" stroke-miterlimit="4"/></g><path stroke-linecap="butt" transform="matrix(0, 0.748005, -0.748005, 0, 348.307333, 43.708811)" fill="none" stroke-linejoin="miter" d="M -0.00237867 1.000981 L 33.069957 1.000981 " stroke="#737373" stroke-width="2" stroke-opacity="1" stroke-miterlimit="4"/><path stroke-linecap="butt" transform="matrix(0, -0.748005, 0.748005, 0, 4.194639, 129.32748)" fill="none" stroke-linejoin="miter" d="M -0.000862225 0.998344 L 78.416032 0.998344 " stroke="#737373" stroke-width="2" stroke-opacity="1" stroke-miterlimit="4"/><path stroke-linecap="butt" transform="matrix(0, -0.748005, 0.748005, 0, 8.088274, 133.785299)" fill="none" stroke-linejoin="miter" d="M 0.000191403 0.999543 L 78.417086 0.999543 " stroke="#737373" stroke-width="2" stroke-opacity="1" stroke-miterlimit="4"/><path stroke-linecap="butt" transform="matrix(0.748005, 0, 0, 0.748005, 4.276123, 69.713974)" fill="none" stroke-linejoin="miter" d="M 0.00163218 0.998608 L 55.325858 0.998608 " stroke="#737373" stroke-width="2" stroke-opacity="1" stroke-miterlimit="4"/><path stroke-linecap="butt" transform="matrix(0, -0.748005, 0.748005, 0, 29.272493, 86.911259)" fill="none" stroke-linejoin="miter" d="M 0.00147365 0.998707 L 58.735811 0.998707 " stroke="#737373" stroke-width="2" stroke-opacity="1" stroke-miterlimit="4"/><path stroke-linecap="butt" transform="matrix(0.748005, 0, 0, 0.748005, 30.020995, 42.91879)" fill="none" stroke-linejoin="miter" d="M -0.0019572 1.001569 L 78.420159 1.001569 " stroke="#737373" stroke-width="2" stroke-opacity="1" stroke-miterlimit="4"/><path stroke-linecap="butt" transform="matrix(0.748005, 0, 0, 0.748005, 32.986692, 46.796612)" fill="none" stroke-linejoin="miter" d="M 0.00212493 0.997796 L 78.419019 0.997796 " stroke="#737373" stroke-width="2" stroke-opacity="1" stroke-miterlimit="4"/><path stroke-linecap="butt" transform="matrix(0.748005, 0, 0, 0.748005, 30.020995, 85.474035)" fill="none" stroke-linejoin="miter" d="M -0.0019572 1.000823 L 20.928711 1.000823 " stroke="#737373" stroke-width="2" stroke-opacity="1" stroke-miterlimit="4"/><path stroke-linecap="butt" transform="matrix(0, 0.748005, -0.748005, 0, 46.416141, 69.818577)" fill="none" stroke-linejoin="miter" d="M 0.00232013 1.000223 L 22.859988 1.000223 " stroke="#737373" stroke-width="2" stroke-opacity="1" stroke-miterlimit="4"/><path stroke-linecap="butt" transform="matrix(0, 0.748005, -0.748005, 0, 26.690334, 39.852084)" fill="none" stroke-linejoin="miter" d="M -0.000697643 1.001233 L 36.936083 1.001233 " stroke="#737373" stroke-width="2" stroke-opacity="1" stroke-miterlimit="4"/><g clip-path="url(#a378b89642)"><path stroke-linecap="butt" transform="matrix(0.748005, 0, 0, 0.748005, 1.559221, 66.037412)" fill="none" stroke-linejoin="miter" d="M -0.00083884 0.999652 L 33.071497 0.999652 " stroke="#737373" stroke-width="2" stroke-opacity="1" stroke-miterlimit="4"/></g><path stroke-linecap="butt" transform="matrix(0.748005, 0, 0, 0.748005, 37.898939, 145.658422)" fill="none" stroke-linejoin="miter" d="M -0.000670237 0.999763 L 400.000691 0.999763 " stroke="#ffffff" stroke-width="2" stroke-opacity="1" stroke-miterlimit="4"/><g fill="#ffffff" fill-opacity="1"><g transform="translate(69.527741, 117.433612)"><g><path d="M 20.203125 -17.203125 L 19.59375 -17.203125 C 19.4375 -18.429688 18.984375 -19.34375 18.234375 -19.9375 C 17.484375 -20.53125 16.335938 -20.828125 14.796875 -20.828125 L 7.875 -20.828125 L 7.875 -12.1875 L 13.3125 -12.1875 C 14.457031 -12.1875 15.257812 -12.394531 15.71875 -12.8125 C 16.175781 -13.226562 16.40625 -13.878906 16.40625 -14.765625 L 16.40625 -15.28125 L 16.96875 -15.28125 L 16.96875 -7.8125 L 16.40625 -7.8125 L 16.40625 -8.203125 C 16.40625 -9.140625 16.179688 -9.820312 15.734375 -10.25 C 15.285156 -10.6875 14.582031 -10.90625 13.625 -10.90625 L 7.875 -10.90625 L 7.875 -3.1875 C 7.875 -2.164062 8.128906 -1.472656 8.640625 -1.109375 C 9.148438 -0.753906 9.953125 -0.578125 11.046875 -0.578125 L 11.046875 0 L 1.375 0 L 1.375 -0.578125 L 1.5625 -0.578125 C 2.519531 -0.578125 3.238281 -0.769531 3.71875 -1.15625 C 4.195312 -1.550781 4.4375 -2.238281 4.4375 -3.21875 L 4.4375 -18.859375 C 4.4375 -19.753906 4.191406 -20.390625 3.703125 -20.765625 C 3.210938 -21.148438 2.4375 -21.34375 1.375 -21.34375 L 1.375 -21.921875 L 19.96875 -21.921875 Z M 20.203125 -17.203125 "/></g></g></g><g fill="#ffffff" fill-opacity="1"><g transform="translate(90.809744, 117.433612)"><g><path d="M 11.171875 -21.34375 C 10.066406 -21.34375 9.273438 -21.164062 8.796875 -20.8125 C 8.316406 -20.46875 8.078125 -19.765625 8.078125 -18.703125 L 8.078125 -2.6875 C 8.078125 -2.238281 8.164062 -1.914062 8.34375 -1.71875 C 8.519531 -1.53125 8.820312 -1.4375 9.25 -1.4375 L 14 -1.4375 C 15.113281 -1.4375 16.03125 -1.578125 16.75 -1.859375 C 17.46875 -2.148438 18.085938 -2.617188 18.609375 -3.265625 C 19.140625 -3.921875 19.648438 -4.84375 20.140625 -6.03125 L 20.671875 -5.84375 L 18.828125 0 L 1.34375 0 L 1.34375 -0.578125 L 1.5625 -0.578125 C 2.644531 -0.578125 3.425781 -0.765625 3.90625 -1.140625 C 4.382812 -1.523438 4.625 -2.21875 4.625 -3.21875 L 4.625 -18.734375 C 4.625 -19.710938 4.375 -20.390625 3.875 -20.765625 C 3.375 -21.148438 2.59375 -21.34375 1.53125 -21.34375 L 1.34375 -21.34375 L 1.34375 -21.921875 L 11.171875 -21.921875 Z M 11.171875 -21.34375 "/></g></g></g><g fill="#ffffff" fill-opacity="1"><g transform="translate(112.091747, 117.433612)"><g><path d="M 3.671875 -4.25 L 11.84375 -22.875 L 12.40625 -22.875 L 21.03125 -3.03125 C 21.34375 -2.3125 21.640625 -1.773438 21.921875 -1.421875 C 22.210938 -1.066406 22.519531 -0.835938 22.84375 -0.734375 C 23.164062 -0.628906 23.601562 -0.578125 24.15625 -0.578125 L 24.15625 0 L 15.15625 0 L 15.15625 -0.578125 C 15.914062 -0.578125 16.488281 -0.710938 16.875 -0.984375 C 17.257812 -1.265625 17.453125 -1.640625 17.453125 -2.109375 C 17.453125 -2.515625 17.3125 -3.015625 17.03125 -3.609375 L 15.375 -7.375 L 6.546875 -7.375 L 4.71875 -3.1875 C 4.507812 -2.757812 4.40625 -2.378906 4.40625 -2.046875 C 4.40625 -1.066406 5.191406 -0.578125 6.765625 -0.578125 L 6.765625 0 L 0.453125 0 L 0.453125 -0.578125 C 0.984375 -0.640625 1.410156 -0.789062 1.734375 -1.03125 C 2.066406 -1.28125 2.363281 -1.640625 2.625 -2.109375 C 2.894531 -2.578125 3.242188 -3.289062 3.671875 -4.25 Z M 14.875 -8.578125 L 10.96875 -17.484375 L 7.078125 -8.578125 Z M 14.875 -8.578125 "/></g></g></g><g fill="#ffffff" fill-opacity="1"><g transform="translate(136.692087, 117.433612)"><g><path d="M 20.484375 -16.9375 L 19.875 -16.9375 C 19.582031 -19.320312 18.296875 -20.515625 16.015625 -20.515625 L 12.34375 -20.515625 L 12.34375 -3 C 12.34375 -2.039062 12.617188 -1.394531 13.171875 -1.0625 C 13.722656 -0.738281 14.507812 -0.578125 15.53125 -0.578125 L 15.53125 0 L 5.71875 0 L 5.71875 -0.578125 C 6.84375 -0.578125 7.65625 -0.765625 8.15625 -1.140625 C 8.65625 -1.523438 8.90625 -2.21875 8.90625 -3.21875 L 8.90625 -20.515625 L 5.015625 -20.515625 C 4.015625 -20.515625 3.175781 -20.222656 2.5 -19.640625 C 1.832031 -19.054688 1.457031 -18.15625 1.375 -16.9375 L 0.796875 -16.9375 L 0.953125 -21.921875 L 20.328125 -21.921875 Z M 20.484375 -16.9375 "/></g></g></g><g fill="#ffffff" fill-opacity="1"><g transform="translate(157.97409, 117.433612)"><g/></g></g><g fill="#ffffff" fill-opacity="1"><g transform="translate(165.950854, 117.433612)"><g><path d="M 18.890625 -16.078125 C 18.890625 -14.890625 18.523438 -13.867188 17.796875 -13.015625 C 17.078125 -12.160156 16.101562 -11.585938 14.875 -11.296875 L 14.875 -11.234375 C 16.363281 -10.992188 17.5625 -10.367188 18.46875 -9.359375 C 19.382812 -8.347656 19.84375 -7.1875 19.84375 -5.875 C 19.84375 -4.75 19.539062 -3.738281 18.9375 -2.84375 C 18.332031 -1.945312 17.453125 -1.25 16.296875 -0.75 C 15.148438 -0.25 13.800781 0 12.25 0 L 1.3125 0 L 1.3125 -0.578125 C 2.195312 -0.578125 2.863281 -0.675781 3.3125 -0.875 C 3.757812 -1.082031 4.066406 -1.40625 4.234375 -1.84375 C 4.410156 -2.289062 4.5 -2.941406 4.5 -3.796875 L 4.5 -17.96875 C 4.5 -18.875 4.414062 -19.5625 4.25 -20.03125 C 4.09375 -20.5 3.789062 -20.828125 3.34375 -21.015625 C 2.90625 -21.210938 2.226562 -21.320312 1.3125 -21.34375 L 1.3125 -21.921875 L 10.75 -21.921875 C 12.03125 -21.921875 13.28125 -21.742188 14.5 -21.390625 C 15.726562 -21.035156 16.765625 -20.421875 17.609375 -19.546875 C 18.460938 -18.679688 18.890625 -17.523438 18.890625 -16.078125 Z M 7.9375 -20.640625 L 7.9375 -12.125 C 9.09375 -11.894531 9.976562 -11.78125 10.59375 -11.78125 C 11.46875 -11.78125 12.25 -11.972656 12.9375 -12.359375 C 13.625 -12.753906 14.164062 -13.285156 14.5625 -13.953125 C 14.957031 -14.628906 15.15625 -15.367188 15.15625 -16.171875 C 15.15625 -17.515625 14.695312 -18.628906 13.78125 -19.515625 C 12.863281 -20.410156 11.640625 -20.859375 10.109375 -20.859375 C 9.390625 -20.859375 8.664062 -20.785156 7.9375 -20.640625 Z M 7.9375 -10.625 L 7.9375 -1.53125 C 8.851562 -1.25 9.738281 -1.109375 10.59375 -1.109375 C 12.1875 -1.109375 13.460938 -1.539062 14.421875 -2.40625 C 15.378906 -3.269531 15.859375 -4.40625 15.859375 -5.8125 C 15.859375 -7.300781 15.273438 -8.488281 14.109375 -9.375 C 12.953125 -10.269531 11.375 -10.71875 9.375 -10.71875 C 9.039062 -10.71875 8.5625 -10.6875 7.9375 -10.625 Z M 7.9375 -10.625 "/></g></g></g><g fill="#ffffff" fill-opacity="1"><g transform="translate(187.232856, 117.433612)"><g><path d="M 18.890625 -16.203125 C 18.890625 -14.867188 18.429688 -13.71875 17.515625 -12.75 C 16.597656 -11.78125 15.207031 -11.0625 13.34375 -10.59375 L 18.40625 -4.3125 C 19.019531 -3.539062 19.539062 -2.925781 19.96875 -2.46875 C 20.394531 -2.007812 20.921875 -1.59375 21.546875 -1.21875 C 22.179688 -0.851562 22.878906 -0.640625 23.640625 -0.578125 L 23.640625 0 L 17.9375 0 L 9.671875 -10.28125 L 7.5625 -10.28125 L 7.5625 -3.15625 C 7.5625 -2.21875 7.800781 -1.550781 8.28125 -1.15625 C 8.757812 -0.769531 9.507812 -0.578125 10.53125 -0.578125 L 10.65625 -0.578125 L 10.65625 0 L 1.078125 0 L 1.078125 -0.578125 C 2.097656 -0.578125 2.859375 -0.753906 3.359375 -1.109375 C 3.859375 -1.472656 4.109375 -2.125 4.109375 -3.0625 L 4.109375 -18.921875 C 4.109375 -19.773438 3.859375 -20.390625 3.359375 -20.765625 C 2.859375 -21.148438 2.097656 -21.34375 1.078125 -21.34375 L 1.078125 -21.921875 L 11.328125 -21.921875 C 13.410156 -21.921875 15.191406 -21.453125 16.671875 -20.515625 C 18.148438 -19.578125 18.890625 -18.140625 18.890625 -16.203125 Z M 7.5625 -20.234375 L 7.5625 -11.359375 L 8.359375 -11.359375 C 10.503906 -11.359375 12.128906 -11.773438 13.234375 -12.609375 C 14.347656 -13.453125 14.90625 -14.617188 14.90625 -16.109375 C 14.90625 -17.410156 14.484375 -18.515625 13.640625 -19.421875 C 12.796875 -20.335938 11.609375 -20.796875 10.078125 -20.796875 C 9.253906 -20.796875 8.414062 -20.609375 7.5625 -20.234375 Z M 7.5625 -20.234375 "/></g></g></g><g fill="#ffffff" fill-opacity="1"><g transform="translate(211.833197, 117.433612)"><g><path d="M 18.796875 -17.0625 L 18.25 -17.0625 C 18.039062 -18.28125 17.644531 -19.179688 17.0625 -19.765625 C 16.488281 -20.347656 15.691406 -20.640625 14.671875 -20.640625 L 7.75 -20.640625 L 7.75 -12.1875 L 13.4375 -12.1875 C 14.457031 -12.1875 15.175781 -12.441406 15.59375 -12.953125 C 16.019531 -13.460938 16.242188 -14.269531 16.265625 -15.375 L 16.84375 -15.375 L 16.84375 -7.65625 L 16.265625 -7.65625 C 16.265625 -8.757812 16.050781 -9.578125 15.625 -10.109375 C 15.207031 -10.640625 14.457031 -10.90625 13.375 -10.90625 L 7.75 -10.90625 L 7.75 -2.90625 C 7.75 -1.820312 8.175781 -1.28125 9.03125 -1.28125 L 14.640625 -1.28125 C 15.816406 -1.28125 16.847656 -1.632812 17.734375 -2.34375 C 18.628906 -3.050781 19.351562 -4.085938 19.90625 -5.453125 L 20.578125 -5.453125 L 18.796875 0 L 1.15625 0 L 1.15625 -0.578125 C 2.257812 -0.578125 3.0625 -0.757812 3.5625 -1.125 C 4.0625 -1.5 4.3125 -2.195312 4.3125 -3.21875 L 4.3125 -18.921875 C 4.3125 -19.773438 4.0625 -20.390625 3.5625 -20.765625 C 3.0625 -21.148438 2.257812 -21.34375 1.15625 -21.34375 L 1.15625 -21.921875 L 18.53125 -21.921875 Z M 18.796875 -17.0625 "/></g></g></g><g fill="#ffffff" fill-opacity="1"><g transform="translate(233.115199, 117.433612)"><g><path d="M 3.671875 -4.25 L 11.84375 -22.875 L 12.40625 -22.875 L 21.03125 -3.03125 C 21.34375 -2.3125 21.640625 -1.773438 21.921875 -1.421875 C 22.210938 -1.066406 22.519531 -0.835938 22.84375 -0.734375 C 23.164062 -0.628906 23.601562 -0.578125 24.15625 -0.578125 L 24.15625 0 L 15.15625 0 L 15.15625 -0.578125 C 15.914062 -0.578125 16.488281 -0.710938 16.875 -0.984375 C 17.257812 -1.265625 17.453125 -1.640625 17.453125 -2.109375 C 17.453125 -2.515625 17.3125 -3.015625 17.03125 -3.609375 L 15.375 -7.375 L 6.546875 -7.375 L 4.71875 -3.1875 C 4.507812 -2.757812 4.40625 -2.378906 4.40625 -2.046875 C 4.40625 -1.066406 5.191406 -0.578125 6.765625 -0.578125 L 6.765625 0 L 0.453125 0 L 0.453125 -0.578125 C 0.984375 -0.640625 1.410156 -0.789062 1.734375 -1.03125 C 2.066406 -1.28125 2.363281 -1.640625 2.625 -2.109375 C 2.894531 -2.578125 3.242188 -3.289062 3.671875 -4.25 Z M 14.875 -8.578125 L 10.96875 -17.484375 L 7.078125 -8.578125 Z M 14.875 -8.578125 "/></g></g></g><g fill="#ffffff" fill-opacity="1"><g transform="translate(257.71554, 117.433612)"><g><path d="M 24.953125 -10.96875 C 24.953125 -8.78125 24.378906 -6.859375 23.234375 -5.203125 C 22.097656 -3.546875 20.5625 -2.265625 18.625 -1.359375 C 16.695312 -0.453125 14.582031 0 12.28125 0 L 1.015625 0 L 1.015625 -0.578125 C 2.171875 -0.597656 3 -0.785156 3.5 -1.140625 C 4 -1.503906 4.25 -2.195312 4.25 -3.21875 L 4.25 -18.765625 C 4.25 -19.785156 3.976562 -20.46875 3.4375 -20.8125 C 2.90625 -21.164062 2.097656 -21.34375 1.015625 -21.34375 L 1.015625 -21.921875 L 13.234375 -21.921875 C 15.679688 -21.921875 17.789062 -21.398438 19.5625 -20.359375 C 21.34375 -19.316406 22.6875 -17.957031 23.59375 -16.28125 C 24.5 -14.613281 24.953125 -12.84375 24.953125 -10.96875 Z M 7.6875 -20.171875 L 7.6875 -1.59375 C 8.75 -1.269531 9.898438 -1.109375 11.140625 -1.109375 C 13.097656 -1.109375 14.816406 -1.507812 16.296875 -2.3125 C 17.785156 -3.113281 18.9375 -4.242188 19.75 -5.703125 C 20.5625 -7.171875 20.96875 -8.863281 20.96875 -10.78125 C 20.96875 -12.695312 20.5625 -14.40625 19.75 -15.90625 C 18.9375 -17.40625 17.789062 -18.578125 16.3125 -19.421875 C 14.84375 -20.273438 13.148438 -20.703125 11.234375 -20.703125 C 9.953125 -20.703125 8.769531 -20.523438 7.6875 -20.171875 Z M 7.6875 -20.171875 "/></g></g></g><g fill="#ffffff" fill-opacity="1"><g transform="translate(283.975037, 117.433612)"><g><path d="M 8.046875 -22.390625 C 8.765625 -22.390625 9.390625 -22.320312 9.921875 -22.1875 C 10.453125 -22.050781 10.992188 -21.863281 11.546875 -21.625 C 11.828125 -21.519531 12.097656 -21.425781 12.359375 -21.34375 C 12.628906 -21.257812 12.867188 -21.21875 13.078125 -21.21875 C 13.585938 -21.21875 13.992188 -21.609375 14.296875 -22.390625 L 14.90625 -22.390625 L 14.90625 -15.125 L 14.296875 -15.125 C 14.191406 -16.25 13.851562 -17.273438 13.28125 -18.203125 C 12.71875 -19.128906 12.015625 -19.859375 11.171875 -20.390625 C 10.335938 -20.921875 9.441406 -21.1875 8.484375 -21.1875 C 7.441406 -21.1875 6.546875 -20.867188 5.796875 -20.234375 C 5.054688 -19.609375 4.6875 -18.851562 4.6875 -17.96875 C 4.6875 -16.925781 5.195312 -16.019531 6.21875 -15.25 C 6.945312 -14.71875 7.957031 -14.082031 9.25 -13.34375 C 10.394531 -12.632812 11.347656 -12.023438 12.109375 -11.515625 C 12.878906 -11.003906 13.597656 -10.453125 14.265625 -9.859375 C 14.859375 -9.285156 15.328125 -8.625 15.671875 -7.875 C 16.023438 -7.132812 16.203125 -6.367188 16.203125 -5.578125 C 16.203125 -4.492188 15.90625 -3.484375 15.3125 -2.546875 C 14.71875 -1.617188 13.90625 -0.878906 12.875 -0.328125 C 11.84375 0.210938 10.707031 0.484375 9.46875 0.484375 C 8.6875 0.484375 7.992188 0.410156 7.390625 0.265625 C 6.785156 0.128906 6.148438 -0.0507812 5.484375 -0.28125 C 4.765625 -0.539062 4.222656 -0.671875 3.859375 -0.671875 C 3.285156 -0.671875 2.847656 -0.285156 2.546875 0.484375 L 1.984375 0.484375 L 1.984375 -6.890625 L 2.546875 -6.890625 C 2.910156 -4.992188 3.628906 -3.492188 4.703125 -2.390625 C 5.773438 -1.285156 7.164062 -0.734375 8.875 -0.734375 C 10.082031 -0.734375 11.078125 -1.0625 11.859375 -1.71875 C 12.648438 -2.382812 13.046875 -3.21875 13.046875 -4.21875 C 13.046875 -4.726562 12.945312 -5.191406 12.75 -5.609375 C 12.5625 -6.035156 12.25 -6.492188 11.8125 -6.984375 C 11.40625 -7.410156 10.828125 -7.875 10.078125 -8.375 C 9.335938 -8.875 8.347656 -9.492188 7.109375 -10.234375 C 6.066406 -10.878906 5.269531 -11.382812 4.71875 -11.75 C 4.164062 -12.125 3.753906 -12.453125 3.484375 -12.734375 C 2.390625 -13.835938 1.84375 -15.164062 1.84375 -16.71875 C 1.84375 -17.78125 2.113281 -18.742188 2.65625 -19.609375 C 3.207031 -20.472656 3.945312 -21.148438 4.875 -21.640625 C 5.8125 -22.140625 6.867188 -22.390625 8.046875 -22.390625 Z M 8.046875 -22.390625 "/></g></g></g></svg>