<svg xmlns="http://www.w3.org/2000/svg" xmlns:xlink="http://www.w3.org/1999/xlink" width="500" zoomAndPan="magnify" viewBox="0 0 375 187.499995" height="250" preserveAspectRatio="xMidYMid meet" version="1.0"><defs><g/><clipPath id="b73694f664"><path d="M 346 67 L 374.5 67 L 374.5 69 L 346 69 Z M 346 67 " clip-rule="nonzero"/></clipPath><clipPath id="adcd3b05bd"><path d="M 0.5 66 L 28 66 L 28 68 L 0.5 68 Z M 0.5 66 " clip-rule="nonzero"/></clipPath></defs><path stroke-linecap="butt" transform="matrix(0.748005, 0, 0, 0.748005, 285.016445, 46.345004)" fill="none" stroke-linejoin="miter" d="M -0.00109691 1.000991 L 78.415797 1.000991 " stroke="#737373" stroke-width="2" stroke-opacity="1" stroke-miterlimit="4"/><path stroke-linecap="butt" transform="matrix(0.748005, 0, 0, 0.748005, 280.558626, 50.238604)" fill="none" stroke-linejoin="miter" d="M -0.000043283 1.002235 L 78.416851 1.002235 " stroke="#737373" stroke-width="2" stroke-opacity="1" stroke-miterlimit="4"/><path stroke-linecap="butt" transform="matrix(0, 0.748005, -0.748005, 0, 344.629952, 46.426466)" fill="none" stroke-linejoin="miter" d="M -0.000914948 0.998843 L 55.323311 0.998843 " stroke="#737373" stroke-width="2" stroke-opacity="1" stroke-miterlimit="4"/><path stroke-linecap="butt" transform="matrix(0.748005, 0, 0, 0.748005, 327.436526, 71.419016)" fill="none" stroke-linejoin="miter" d="M 0.00130279 1.001266 L 58.73564 1.001266 " stroke="#737373" stroke-width="2" stroke-opacity="1" stroke-miterlimit="4"/><path stroke-linecap="butt" transform="matrix(0, 0.748005, -0.748005, 0, 371.425195, 72.171347)" fill="none" stroke-linejoin="miter" d="M 0.000706125 1.001883 L 78.4176 1.001883 " stroke="#737373" stroke-width="2" stroke-opacity="1" stroke-miterlimit="4"/><path stroke-linecap="butt" transform="matrix(0, 0.748005, -0.748005, 0, 367.547313, 75.137072)" fill="none" stroke-linejoin="miter" d="M -0.000471731 0.998031 L 78.416423 0.998031 " stroke="#737373" stroke-width="2" stroke-opacity="1" stroke-miterlimit="4"/><path stroke-linecap="butt" transform="matrix(0, 0.748005, -0.748005, 0, 328.872607, 72.168659)" fill="none" stroke-linejoin="miter" d="M -0.000922497 0.999468 L 20.924523 0.999468 " stroke="#737373" stroke-width="2" stroke-opacity="1" stroke-miterlimit="4"/><path stroke-linecap="butt" transform="matrix(-0.748005, 0, 0, -0.748005, 344.523771, 88.567972)" fill="none" stroke-linejoin="miter" d="M 0.000446014 0.999537 L 22.858114 0.999537 " stroke="#737373" stroke-width="2" stroke-opacity="1" stroke-miterlimit="4"/><g clip-path="url(#b73694f664)"><path stroke-linecap="butt" transform="matrix(-0.748005, 0, 0, -0.748005, 374.490937, 68.841613)" fill="none" stroke-linejoin="miter" d="M -0.00167128 0.999809 L 36.935109 0.999809 " stroke="#737373" stroke-width="2" stroke-opacity="1" stroke-miterlimit="4"/></g><path stroke-linecap="butt" transform="matrix(0, 0.748005, -0.748005, 0, 348.307333, 43.708753)" fill="none" stroke-linejoin="miter" d="M -0.00230187 1.000981 L 33.070034 1.000981 " stroke="#737373" stroke-width="2" stroke-opacity="1" stroke-miterlimit="4"/><path stroke-linecap="butt" transform="matrix(0, -0.748005, 0.748005, 0, 4.194639, 129.32748)" fill="none" stroke-linejoin="miter" d="M -0.000862225 0.998344 L 78.416032 0.998344 " stroke="#737373" stroke-width="2" stroke-opacity="1" stroke-miterlimit="4"/><path stroke-linecap="butt" transform="matrix(0, -0.748005, 0.748005, 0, 8.088274, 133.785359)" fill="none" stroke-linejoin="miter" d="M 0.000271403 0.999543 L 78.417166 0.999543 " stroke="#737373" stroke-width="2" stroke-opacity="1" stroke-miterlimit="4"/><path stroke-linecap="butt" transform="matrix(0.748005, 0, 0, 0.748005, 4.276123, 69.713974)" fill="none" stroke-linejoin="miter" d="M 0.00163218 0.998608 L 55.325858 0.998608 " stroke="#737373" stroke-width="2" stroke-opacity="1" stroke-miterlimit="4"/><path stroke-linecap="butt" transform="matrix(0, -0.748005, 0.748005, 0, 29.272493, 86.911199)" fill="none" stroke-linejoin="miter" d="M 0.00139365 0.998707 L 58.735731 0.998707 " stroke="#737373" stroke-width="2" stroke-opacity="1" stroke-miterlimit="4"/><path stroke-linecap="butt" transform="matrix(0.748005, 0, 0, 0.748005, 30.020995, 42.91879)" fill="none" stroke-linejoin="miter" d="M -0.0019572 1.001569 L 78.420159 1.001569 " stroke="#737373" stroke-width="2" stroke-opacity="1" stroke-miterlimit="4"/><path stroke-linecap="butt" transform="matrix(0.748005, 0, 0, 0.748005, 32.986692, 46.796612)" fill="none" stroke-linejoin="miter" d="M 0.00212493 0.997796 L 78.419019 0.997796 " stroke="#737373" stroke-width="2" stroke-opacity="1" stroke-miterlimit="4"/><path stroke-linecap="butt" transform="matrix(0.748005, 0, 0, 0.748005, 30.020995, 85.473978)" fill="none" stroke-linejoin="miter" d="M -0.0019572 1.0009 L 20.928711 1.0009 " stroke="#737373" stroke-width="2" stroke-opacity="1" stroke-miterlimit="4"/><path stroke-linecap="butt" transform="matrix(0, 0.748005, -0.748005, 0, 46.416141, 69.818637)" fill="none" stroke-linejoin="miter" d="M 0.00224013 1.000223 L 22.859908 1.000223 " stroke="#737373" stroke-width="2" stroke-opacity="1" stroke-miterlimit="4"/><path stroke-linecap="butt" transform="matrix(0, 0.748005, -0.748005, 0, 26.690334, 39.852143)" fill="none" stroke-linejoin="miter" d="M -0.000775723 1.001233 L 36.936005 1.001233 " stroke="#737373" stroke-width="2" stroke-opacity="1" stroke-miterlimit="4"/><g clip-path="url(#adcd3b05bd)"><path stroke-linecap="butt" transform="matrix(0.748005, 0, 0, 0.748005, 1.559221, 66.037412)" fill="none" stroke-linejoin="miter" d="M -0.00083884 0.999652 L 33.071497 0.999652 " stroke="#737373" stroke-width="2" stroke-opacity="1" stroke-miterlimit="4"/></g><path stroke-linecap="butt" transform="matrix(0.748005, 0, 0, 0.748005, 37.898939, 145.658364)" fill="none" stroke-linejoin="miter" d="M -0.000670237 0.99984 L 400.000691 0.99984 " stroke="#ffffff" stroke-width="2" stroke-opacity="1" stroke-miterlimit="4"/><g fill="#ffffff" fill-opacity="1"><g transform="translate(77.522048, 117.433672)"><g><path d="M 10.9375 -21.34375 L 10.75 -21.34375 C 9.6875 -21.34375 8.914062 -21.148438 8.4375 -20.765625 C 7.957031 -20.390625 7.71875 -19.703125 7.71875 -18.703125 L 7.71875 -12.1875 L 18.5 -12.1875 L 18.5 -18.734375 C 18.5 -19.734375 18.253906 -20.414062 17.765625 -20.78125 C 17.273438 -21.15625 16.5 -21.34375 15.4375 -21.34375 L 15.25 -21.34375 L 15.25 -21.921875 L 25.140625 -21.921875 L 25.140625 -21.34375 C 24.015625 -21.34375 23.203125 -21.160156 22.703125 -20.796875 C 22.203125 -20.441406 21.953125 -19.734375 21.953125 -18.671875 L 21.953125 -3.1875 C 21.953125 -2.144531 22.203125 -1.445312 22.703125 -1.09375 C 23.203125 -0.75 24.015625 -0.578125 25.140625 -0.578125 L 25.140625 0 L 15.25 0 L 15.25 -0.578125 C 16.414062 -0.578125 17.25 -0.75 17.75 -1.09375 C 18.25 -1.445312 18.5 -2.15625 18.5 -3.21875 L 18.5 -10.90625 L 7.71875 -10.90625 L 7.71875 -3.21875 C 7.71875 -2.15625 7.96875 -1.445312 8.46875 -1.09375 C 8.96875 -0.75 9.789062 -0.578125 10.9375 -0.578125 L 10.9375 0 L 1.109375 0 L 1.109375 -0.578125 C 2.242188 -0.597656 3.054688 -0.785156 3.546875 -1.140625 C 4.035156 -1.503906 4.28125 -2.195312 4.28125 -3.21875 L 4.28125 -18.734375 C 4.28125 -19.710938 4.035156 -20.390625 3.546875 -20.765625 C 3.054688 -21.148438 2.300781 -21.34375 1.28125 -21.34375 L 1.109375 -21.34375 L 1.109375 -21.921875 L 10.9375 -21.921875 Z M 10.9375 -21.34375 "/></g></g></g><g fill="#ffffff" fill-opacity="1"><g transform="translate(103.781546, 117.433672)"><g><path d="M 3.671875 -4.25 L 11.84375 -22.875 L 12.40625 -22.875 L 21.03125 -3.03125 C 21.34375 -2.3125 21.640625 -1.773438 21.921875 -1.421875 C 22.210938 -1.066406 22.519531 -0.835938 22.84375 -0.734375 C 23.164062 -0.628906 23.601562 -0.578125 24.15625 -0.578125 L 24.15625 0 L 15.15625 0 L 15.15625 -0.578125 C 15.914062 -0.578125 16.488281 -0.710938 16.875 -0.984375 C 17.257812 -1.265625 17.453125 -1.640625 17.453125 -2.109375 C 17.453125 -2.515625 17.3125 -3.015625 17.03125 -3.609375 L 15.375 -7.375 L 6.546875 -7.375 L 4.71875 -3.1875 C 4.507812 -2.757812 4.40625 -2.378906 4.40625 -2.046875 C 4.40625 -1.066406 5.191406 -0.578125 6.765625 -0.578125 L 6.765625 0 L 0.453125 0 L 0.453125 -0.578125 C 0.984375 -0.640625 1.410156 -0.789062 1.734375 -1.03125 C 2.066406 -1.28125 2.363281 -1.640625 2.625 -2.109375 C 2.894531 -2.578125 3.242188 -3.289062 3.671875 -4.25 Z M 14.875 -8.578125 L 10.96875 -17.484375 L 7.078125 -8.578125 Z M 14.875 -8.578125 "/></g></g></g><g fill="#ffffff" fill-opacity="1"><g transform="translate(128.381886, 117.433672)"><g><path d="M 20.96875 -5.75 L 20.96875 -18.890625 C 20.96875 -19.847656 20.796875 -20.488281 20.453125 -20.8125 C 20.109375 -21.144531 19.476562 -21.320312 18.5625 -21.34375 L 17.765625 -21.34375 L 17.765625 -21.921875 L 25.84375 -21.921875 L 25.84375 -21.34375 L 25.171875 -21.34375 C 24.316406 -21.34375 23.707031 -21.289062 23.34375 -21.1875 C 22.988281 -21.082031 22.738281 -20.832031 22.59375 -20.4375 C 22.457031 -20.039062 22.390625 -19.394531 22.390625 -18.5 L 22.390625 0.25 L 21.953125 0.25 L 6.28125 -17.390625 L 6.28125 -3.703125 C 6.28125 -2.515625 6.519531 -1.695312 7 -1.25 C 7.476562 -0.800781 8.300781 -0.578125 9.46875 -0.578125 L 9.46875 0 L 1.5625 0 L 1.5625 -0.578125 L 1.75 -0.578125 C 2.769531 -0.578125 3.546875 -0.757812 4.078125 -1.125 C 4.609375 -1.5 4.875 -2.1875 4.875 -3.1875 L 4.875 -18.796875 C 4.320312 -19.734375 3.695312 -20.390625 3 -20.765625 C 2.300781 -21.148438 1.441406 -21.34375 0.421875 -21.34375 L 0.421875 -21.921875 L 6.796875 -21.921875 Z M 20.96875 -5.75 "/></g></g></g><g fill="#ffffff" fill-opacity="1"><g transform="translate(154.641384, 117.433672)"><g><path d="M 24.953125 -10.96875 C 24.953125 -8.78125 24.378906 -6.859375 23.234375 -5.203125 C 22.097656 -3.546875 20.5625 -2.265625 18.625 -1.359375 C 16.695312 -0.453125 14.582031 0 12.28125 0 L 1.015625 0 L 1.015625 -0.578125 C 2.171875 -0.597656 3 -0.785156 3.5 -1.140625 C 4 -1.503906 4.25 -2.195312 4.25 -3.21875 L 4.25 -18.765625 C 4.25 -19.785156 3.976562 -20.46875 3.4375 -20.8125 C 2.90625 -21.164062 2.097656 -21.34375 1.015625 -21.34375 L 1.015625 -21.921875 L 13.234375 -21.921875 C 15.679688 -21.921875 17.789062 -21.398438 19.5625 -20.359375 C 21.34375 -19.316406 22.6875 -17.957031 23.59375 -16.28125 C 24.5 -14.613281 24.953125 -12.84375 24.953125 -10.96875 Z M 7.6875 -20.171875 L 7.6875 -1.59375 C 8.75 -1.269531 9.898438 -1.109375 11.140625 -1.109375 C 13.097656 -1.109375 14.816406 -1.507812 16.296875 -2.3125 C 17.785156 -3.113281 18.9375 -4.242188 19.75 -5.703125 C 20.5625 -7.171875 20.96875 -8.863281 20.96875 -10.78125 C 20.96875 -12.695312 20.5625 -14.40625 19.75 -15.90625 C 18.9375 -17.40625 17.789062 -18.578125 16.3125 -19.421875 C 14.84375 -20.273438 13.148438 -20.703125 11.234375 -20.703125 C 9.953125 -20.703125 8.769531 -20.523438 7.6875 -20.171875 Z M 7.6875 -20.171875 "/></g></g></g><g fill="#ffffff" fill-opacity="1"><g transform="translate(180.900881, 117.433672)"><g><path d="M 10.9375 -21.34375 L 10.75 -21.34375 C 9.6875 -21.34375 8.914062 -21.148438 8.4375 -20.765625 C 7.957031 -20.390625 7.71875 -19.703125 7.71875 -18.703125 L 7.71875 -12.1875 L 18.5 -12.1875 L 18.5 -18.734375 C 18.5 -19.734375 18.253906 -20.414062 17.765625 -20.78125 C 17.273438 -21.15625 16.5 -21.34375 15.4375 -21.34375 L 15.25 -21.34375 L 15.25 -21.921875 L 25.140625 -21.921875 L 25.140625 -21.34375 C 24.015625 -21.34375 23.203125 -21.160156 22.703125 -20.796875 C 22.203125 -20.441406 21.953125 -19.734375 21.953125 -18.671875 L 21.953125 -3.1875 C 21.953125 -2.144531 22.203125 -1.445312 22.703125 -1.09375 C 23.203125 -0.75 24.015625 -0.578125 25.140625 -0.578125 L 25.140625 0 L 15.25 0 L 15.25 -0.578125 C 16.414062 -0.578125 17.25 -0.75 17.75 -1.09375 C 18.25 -1.445312 18.5 -2.15625 18.5 -3.21875 L 18.5 -10.90625 L 7.71875 -10.90625 L 7.71875 -3.21875 C 7.71875 -2.15625 7.96875 -1.445312 8.46875 -1.09375 C 8.96875 -0.75 9.789062 -0.578125 10.9375 -0.578125 L 10.9375 0 L 1.109375 0 L 1.109375 -0.578125 C 2.242188 -0.597656 3.054688 -0.785156 3.546875 -1.140625 C 4.035156 -1.503906 4.28125 -2.195312 4.28125 -3.21875 L 4.28125 -18.734375 C 4.28125 -19.710938 4.035156 -20.390625 3.546875 -20.765625 C 3.054688 -21.148438 2.300781 -21.34375 1.28125 -21.34375 L 1.109375 -21.34375 L 1.109375 -21.921875 L 10.9375 -21.921875 Z M 10.9375 -21.34375 "/></g></g></g><g fill="#ffffff" fill-opacity="1"><g transform="translate(207.160379, 117.433672)"><g><path d="M 18.796875 -17.0625 L 18.25 -17.0625 C 18.039062 -18.28125 17.644531 -19.179688 17.0625 -19.765625 C 16.488281 -20.347656 15.691406 -20.640625 14.671875 -20.640625 L 7.75 -20.640625 L 7.75 -12.1875 L 13.4375 -12.1875 C 14.457031 -12.1875 15.175781 -12.441406 15.59375 -12.953125 C 16.019531 -13.460938 16.242188 -14.269531 16.265625 -15.375 L 16.84375 -15.375 L 16.84375 -7.65625 L 16.265625 -7.65625 C 16.265625 -8.757812 16.050781 -9.578125 15.625 -10.109375 C 15.207031 -10.640625 14.457031 -10.90625 13.375 -10.90625 L 7.75 -10.90625 L 7.75 -2.90625 C 7.75 -1.820312 8.175781 -1.28125 9.03125 -1.28125 L 14.640625 -1.28125 C 15.816406 -1.28125 16.847656 -1.632812 17.734375 -2.34375 C 18.628906 -3.050781 19.351562 -4.085938 19.90625 -5.453125 L 20.578125 -5.453125 L 18.796875 0 L 1.15625 0 L 1.15625 -0.578125 C 2.257812 -0.578125 3.0625 -0.757812 3.5625 -1.125 C 4.0625 -1.5 4.3125 -2.195312 4.3125 -3.21875 L 4.3125 -18.921875 C 4.3125 -19.773438 4.0625 -20.390625 3.5625 -20.765625 C 3.0625 -21.148438 2.257812 -21.34375 1.15625 -21.34375 L 1.15625 -21.921875 L 18.53125 -21.921875 Z M 18.796875 -17.0625 "/></g></g></g><g fill="#ffffff" fill-opacity="1"><g transform="translate(228.442382, 117.433672)"><g><path d="M 11.171875 -21.34375 C 10.066406 -21.34375 9.273438 -21.164062 8.796875 -20.8125 C 8.316406 -20.46875 8.078125 -19.765625 8.078125 -18.703125 L 8.078125 -2.6875 C 8.078125 -2.238281 8.164062 -1.914062 8.34375 -1.71875 C 8.519531 -1.53125 8.820312 -1.4375 9.25 -1.4375 L 14 -1.4375 C 15.113281 -1.4375 16.03125 -1.578125 16.75 -1.859375 C 17.46875 -2.148438 18.085938 -2.617188 18.609375 -3.265625 C 19.140625 -3.921875 19.648438 -4.84375 20.140625 -6.03125 L 20.671875 -5.84375 L 18.828125 0 L 1.34375 0 L 1.34375 -0.578125 L 1.5625 -0.578125 C 2.644531 -0.578125 3.425781 -0.765625 3.90625 -1.140625 C 4.382812 -1.523438 4.625 -2.21875 4.625 -3.21875 L 4.625 -18.734375 C 4.625 -19.710938 4.375 -20.390625 3.875 -20.765625 C 3.375 -21.148438 2.59375 -21.34375 1.53125 -21.34375 L 1.34375 -21.34375 L 1.34375 -21.921875 L 11.171875 -21.921875 Z M 11.171875 -21.34375 "/></g></g></g><g fill="#ffffff" fill-opacity="1"><g transform="translate(249.724385, 117.433672)"><g><path d="M 24.953125 -10.96875 C 24.953125 -8.78125 24.378906 -6.859375 23.234375 -5.203125 C 22.097656 -3.546875 20.5625 -2.265625 18.625 -1.359375 C 16.695312 -0.453125 14.582031 0 12.28125 0 L 1.015625 0 L 1.015625 -0.578125 C 2.171875 -0.597656 3 -0.785156 3.5 -1.140625 C 4 -1.503906 4.25 -2.195312 4.25 -3.21875 L 4.25 -18.765625 C 4.25 -19.785156 3.976562 -20.46875 3.4375 -20.8125 C 2.90625 -21.164062 2.097656 -21.34375 1.015625 -21.34375 L 1.015625 -21.921875 L 13.234375 -21.921875 C 15.679688 -21.921875 17.789062 -21.398438 19.5625 -20.359375 C 21.34375 -19.316406 22.6875 -17.957031 23.59375 -16.28125 C 24.5 -14.613281 24.953125 -12.84375 24.953125 -10.96875 Z M 7.6875 -20.171875 L 7.6875 -1.59375 C 8.75 -1.269531 9.898438 -1.109375 11.140625 -1.109375 C 13.097656 -1.109375 14.816406 -1.507812 16.296875 -2.3125 C 17.785156 -3.113281 18.9375 -4.242188 19.75 -5.703125 C 20.5625 -7.171875 20.96875 -8.863281 20.96875 -10.78125 C 20.96875 -12.695312 20.5625 -14.40625 19.75 -15.90625 C 18.9375 -17.40625 17.789062 -18.578125 16.3125 -19.421875 C 14.84375 -20.273438 13.148438 -20.703125 11.234375 -20.703125 C 9.953125 -20.703125 8.769531 -20.523438 7.6875 -20.171875 Z M 7.6875 -20.171875 "/></g></g></g><g fill="#ffffff" fill-opacity="1"><g transform="translate(275.983882, 117.433672)"><g><path d="M 8.046875 -22.390625 C 8.765625 -22.390625 9.390625 -22.320312 9.921875 -22.1875 C 10.453125 -22.050781 10.992188 -21.863281 11.546875 -21.625 C 11.828125 -21.519531 12.097656 -21.425781 12.359375 -21.34375 C 12.628906 -21.257812 12.867188 -21.21875 13.078125 -21.21875 C 13.585938 -21.21875 13.992188 -21.609375 14.296875 -22.390625 L 14.90625 -22.390625 L 14.90625 -15.125 L 14.296875 -15.125 C 14.191406 -16.25 13.851562 -17.273438 13.28125 -18.203125 C 12.71875 -19.128906 12.015625 -19.859375 11.171875 -20.390625 C 10.335938 -20.921875 9.441406 -21.1875 8.484375 -21.1875 C 7.441406 -21.1875 6.546875 -20.867188 5.796875 -20.234375 C 5.054688 -19.609375 4.6875 -18.851562 4.6875 -17.96875 C 4.6875 -16.925781 5.195312 -16.019531 6.21875 -15.25 C 6.945312 -14.71875 7.957031 -14.082031 9.25 -13.34375 C 10.394531 -12.632812 11.347656 -12.023438 12.109375 -11.515625 C 12.878906 -11.003906 13.597656 -10.453125 14.265625 -9.859375 C 14.859375 -9.285156 15.328125 -8.625 15.671875 -7.875 C 16.023438 -7.132812 16.203125 -6.367188 16.203125 -5.578125 C 16.203125 -4.492188 15.90625 -3.484375 15.3125 -2.546875 C 14.71875 -1.617188 13.90625 -0.878906 12.875 -0.328125 C 11.84375 0.210938 10.707031 0.484375 9.46875 0.484375 C 8.6875 0.484375 7.992188 0.410156 7.390625 0.265625 C 6.785156 0.128906 6.148438 -0.0507812 5.484375 -0.28125 C 4.765625 -0.539062 4.222656 -0.671875 3.859375 -0.671875 C 3.285156 -0.671875 2.847656 -0.285156 2.546875 0.484375 L 1.984375 0.484375 L 1.984375 -6.890625 L 2.546875 -6.890625 C 2.910156 -4.992188 3.628906 -3.492188 4.703125 -2.390625 C 5.773438 -1.285156 7.164062 -0.734375 8.875 -0.734375 C 10.082031 -0.734375 11.078125 -1.0625 11.859375 -1.71875 C 12.648438 -2.382812 13.046875 -3.21875 13.046875 -4.21875 C 13.046875 -4.726562 12.945312 -5.191406 12.75 -5.609375 C 12.5625 -6.035156 12.25 -6.492188 11.8125 -6.984375 C 11.40625 -7.410156 10.828125 -7.875 10.078125 -8.375 C 9.335938 -8.875 8.347656 -9.492188 7.109375 -10.234375 C 6.066406 -10.878906 5.269531 -11.382812 4.71875 -11.75 C 4.164062 -12.125 3.753906 -12.453125 3.484375 -12.734375 C 2.390625 -13.835938 1.84375 -15.164062 1.84375 -16.71875 C 1.84375 -17.78125 2.113281 -18.742188 2.65625 -19.609375 C 3.207031 -20.472656 3.945312 -21.148438 4.875 -21.640625 C 5.8125 -22.140625 6.867188 -22.390625 8.046875 -22.390625 Z M 8.046875 -22.390625 "/></g></g></g></svg>