<svg xmlns="http://www.w3.org/2000/svg" xmlns:xlink="http://www.w3.org/1999/xlink" width="500" zoomAndPan="magnify" viewBox="0 0 375 187.499995" height="250" preserveAspectRatio="xMidYMid meet" version="1.0"><defs><g/><clipPath id="3c24f52c86"><path d="M 346 67 L 374.5 67 L 374.5 69 L 346 69 Z M 346 67 " clip-rule="nonzero"/></clipPath><clipPath id="9f01e58055"><path d="M 0.5 66 L 28 66 L 28 68 L 0.5 68 Z M 0.5 66 " clip-rule="nonzero"/></clipPath></defs><path stroke-linecap="butt" transform="matrix(0.748005, 0, 0, 0.748005, 285.016445, 46.344989)" fill="none" stroke-linejoin="miter" d="M -0.00109691 1.00101 L 78.415797 1.00101 " stroke="#737373" stroke-width="2" stroke-opacity="1" stroke-miterlimit="4"/><path stroke-linecap="butt" transform="matrix(0.748005, 0, 0, 0.748005, 280.558626, 50.238619)" fill="none" stroke-linejoin="miter" d="M -0.000043283 1.002215 L 78.416851 1.002215 " stroke="#737373" stroke-width="2" stroke-opacity="1" stroke-miterlimit="4"/><path stroke-linecap="butt" transform="matrix(0, 0.748005, -0.748005, 0, 344.629952, 46.42648)" fill="none" stroke-linejoin="miter" d="M -0.000934148 0.998843 L 55.323292 0.998843 " stroke="#737373" stroke-width="2" stroke-opacity="1" stroke-miterlimit="4"/><path stroke-linecap="butt" transform="matrix(0.748005, 0, 0, 0.748005, 327.436526, 71.419045)" fill="none" stroke-linejoin="miter" d="M 0.00130279 1.001228 L 58.73564 1.001228 " stroke="#737373" stroke-width="2" stroke-opacity="1" stroke-miterlimit="4"/><path stroke-linecap="butt" transform="matrix(0, 0.748005, -0.748005, 0, 371.425195, 72.171347)" fill="none" stroke-linejoin="miter" d="M 0.000706125 1.001883 L 78.4176 1.001883 " stroke="#737373" stroke-width="2" stroke-opacity="1" stroke-miterlimit="4"/><path stroke-linecap="butt" transform="matrix(0, 0.748005, -0.748005, 0, 367.547313, 75.13704)" fill="none" stroke-linejoin="miter" d="M -0.000430131 0.998031 L 78.416464 0.998031 " stroke="#737373" stroke-width="2" stroke-opacity="1" stroke-miterlimit="4"/><path stroke-linecap="butt" transform="matrix(0, 0.748005, -0.748005, 0, 328.872607, 72.168688)" fill="none" stroke-linejoin="miter" d="M -0.000960897 0.999468 L 20.924485 0.999468 " stroke="#737373" stroke-width="2" stroke-opacity="1" stroke-miterlimit="4"/><path stroke-linecap="butt" transform="matrix(-0.748005, 0, 0, -0.748005, 344.523771, 88.568032)" fill="none" stroke-linejoin="miter" d="M 0.000446014 0.999617 L 22.858114 0.999617 " stroke="#737373" stroke-width="2" stroke-opacity="1" stroke-miterlimit="4"/><g clip-path="url(#3c24f52c86)"><path stroke-linecap="butt" transform="matrix(-0.748005, 0, 0, -0.748005, 374.490937, 68.841584)" fill="none" stroke-linejoin="miter" d="M -0.00167128 0.999771 L 36.935109 0.999771 " stroke="#737373" stroke-width="2" stroke-opacity="1" stroke-miterlimit="4"/></g><path stroke-linecap="butt" transform="matrix(0, 0.748005, -0.748005, 0, 348.307333, 43.708796)" fill="none" stroke-linejoin="miter" d="M -0.00235947 1.000981 L 33.069976 1.000981 " stroke="#737373" stroke-width="2" stroke-opacity="1" stroke-miterlimit="4"/><path stroke-linecap="butt" transform="matrix(0, -0.748005, 0.748005, 0, 4.194639, 129.327511)" fill="none" stroke-linejoin="miter" d="M -0.000820625 0.998344 L 78.416074 0.998344 " stroke="#737373" stroke-width="2" stroke-opacity="1" stroke-miterlimit="4"/><path stroke-linecap="butt" transform="matrix(0, -0.748005, 0.748005, 0, 8.088274, 133.785331)" fill="none" stroke-linejoin="miter" d="M 0.000233003 0.999543 L 78.417127 0.999543 " stroke="#737373" stroke-width="2" stroke-opacity="1" stroke-miterlimit="4"/><path stroke-linecap="butt" transform="matrix(0.748005, 0, 0, 0.748005, 4.276123, 69.713974)" fill="none" stroke-linejoin="miter" d="M 0.00163218 0.998608 L 55.325858 0.998608 " stroke="#737373" stroke-width="2" stroke-opacity="1" stroke-miterlimit="4"/><path stroke-linecap="butt" transform="matrix(0, -0.748005, 0.748005, 0, 29.272493, 86.911199)" fill="none" stroke-linejoin="miter" d="M 0.00139365 0.998707 L 58.735731 0.998707 " stroke="#737373" stroke-width="2" stroke-opacity="1" stroke-miterlimit="4"/><path stroke-linecap="butt" transform="matrix(0.748005, 0, 0, 0.748005, 30.020995, 42.918759)" fill="none" stroke-linejoin="miter" d="M -0.0019572 1.00161 L 78.420159 1.00161 " stroke="#737373" stroke-width="2" stroke-opacity="1" stroke-miterlimit="4"/><path stroke-linecap="butt" transform="matrix(0.748005, 0, 0, 0.748005, 32.986692, 46.796627)" fill="none" stroke-linejoin="miter" d="M 0.00212493 0.997777 L 78.419019 0.997777 " stroke="#737373" stroke-width="2" stroke-opacity="1" stroke-miterlimit="4"/><path stroke-linecap="butt" transform="matrix(0.748005, 0, 0, 0.748005, 30.020995, 85.474007)" fill="none" stroke-linejoin="miter" d="M -0.0019572 1.000862 L 20.928711 1.000862 " stroke="#737373" stroke-width="2" stroke-opacity="1" stroke-miterlimit="4"/><path stroke-linecap="butt" transform="matrix(0, 0.748005, -0.748005, 0, 46.416141, 69.818637)" fill="none" stroke-linejoin="miter" d="M 0.00224013 1.000223 L 22.859908 1.000223 " stroke="#737373" stroke-width="2" stroke-opacity="1" stroke-miterlimit="4"/><path stroke-linecap="butt" transform="matrix(0, 0.748005, -0.748005, 0, 26.690334, 39.852128)" fill="none" stroke-linejoin="miter" d="M -0.000756203 1.001233 L 36.936024 1.001233 " stroke="#737373" stroke-width="2" stroke-opacity="1" stroke-miterlimit="4"/><g clip-path="url(#9f01e58055)"><path stroke-linecap="butt" transform="matrix(0.748005, 0, 0, 0.748005, 1.559221, 66.037412)" fill="none" stroke-linejoin="miter" d="M -0.00083884 0.999652 L 33.071497 0.999652 " stroke="#737373" stroke-width="2" stroke-opacity="1" stroke-miterlimit="4"/></g><path stroke-linecap="butt" transform="matrix(0.748005, 0, 0, 0.748005, 37.898939, 145.658364)" fill="none" stroke-linejoin="miter" d="M -0.000670237 0.99984 L 400.000691 0.99984 " stroke="#ffffff" stroke-width="2" stroke-opacity="1" stroke-miterlimit="4"/><g fill="#ffffff" fill-opacity="1"><g transform="translate(129.385694, 117.433641)"><g><path d="M 15.859375 -5.171875 L 23.546875 -21.921875 L 30.21875 -21.921875 L 30.21875 -21.34375 L 29.984375 -21.34375 C 28.960938 -21.34375 28.207031 -21.160156 27.71875 -20.796875 C 27.238281 -20.441406 27 -19.753906 27 -18.734375 L 27 -3.15625 C 27 -2.21875 27.226562 -1.550781 27.6875 -1.15625 C 28.15625 -0.769531 28.945312 -0.578125 30.0625 -0.578125 L 30.21875 -0.578125 L 30.21875 0 L 20.328125 0 L 20.328125 -0.578125 L 20.609375 -0.578125 C 21.609375 -0.578125 22.347656 -0.769531 22.828125 -1.15625 C 23.304688 -1.550781 23.546875 -2.238281 23.546875 -3.21875 L 23.546875 -18.375 L 23.484375 -18.375 L 15.0625 0 L 14.484375 0 L 6.0625 -18.375 L 6 -18.375 L 6 -3.1875 C 6 -2.164062 6.234375 -1.476562 6.703125 -1.125 C 7.171875 -0.78125 7.957031 -0.597656 9.0625 -0.578125 L 9.0625 0 L 1.375 0 L 1.375 -0.578125 L 1.5625 -0.578125 C 2.582031 -0.578125 3.335938 -0.757812 3.828125 -1.125 C 4.316406 -1.5 4.5625 -2.195312 4.5625 -3.21875 L 4.5625 -18.1875 C 4.5625 -19.1875 4.304688 -19.9375 3.796875 -20.4375 C 3.285156 -20.9375 2.476562 -21.238281 1.375 -21.34375 L 1.375 -21.921875 L 8.078125 -21.921875 Z M 15.859375 -5.171875 "/></g></g></g><g fill="#ffffff" fill-opacity="1"><g transform="translate(160.973668, 117.433641)"><g><path d="M 3.671875 -4.25 L 11.84375 -22.875 L 12.40625 -22.875 L 21.03125 -3.03125 C 21.34375 -2.3125 21.640625 -1.773438 21.921875 -1.421875 C 22.210938 -1.066406 22.519531 -0.835938 22.84375 -0.734375 C 23.164062 -0.628906 23.601562 -0.578125 24.15625 -0.578125 L 24.15625 0 L 15.15625 0 L 15.15625 -0.578125 C 15.914062 -0.578125 16.488281 -0.710938 16.875 -0.984375 C 17.257812 -1.265625 17.453125 -1.640625 17.453125 -2.109375 C 17.453125 -2.515625 17.3125 -3.015625 17.03125 -3.609375 L 15.375 -7.375 L 6.546875 -7.375 L 4.71875 -3.1875 C 4.507812 -2.757812 4.40625 -2.378906 4.40625 -2.046875 C 4.40625 -1.066406 5.191406 -0.578125 6.765625 -0.578125 L 6.765625 0 L 0.453125 0 L 0.453125 -0.578125 C 0.984375 -0.640625 1.410156 -0.789062 1.734375 -1.03125 C 2.066406 -1.28125 2.363281 -1.640625 2.625 -2.109375 C 2.894531 -2.578125 3.242188 -3.289062 3.671875 -4.25 Z M 14.875 -8.578125 L 10.96875 -17.484375 L 7.078125 -8.578125 Z M 14.875 -8.578125 "/></g></g></g><g fill="#ffffff" fill-opacity="1"><g transform="translate(185.574008, 117.433641)"><g><path d="M 11.203125 -21.34375 C 10.304688 -21.34375 9.625 -21.257812 9.15625 -21.09375 C 8.6875 -20.9375 8.351562 -20.648438 8.15625 -20.234375 C 7.96875 -19.828125 7.875 -19.226562 7.875 -18.4375 L 7.875 -3.1875 C 7.875 -2.46875 7.988281 -1.921875 8.21875 -1.546875 C 8.457031 -1.171875 8.8125 -0.921875 9.28125 -0.796875 C 9.75 -0.671875 10.390625 -0.597656 11.203125 -0.578125 L 11.203125 0 L 1.109375 0 L 1.109375 -0.578125 C 1.960938 -0.597656 2.617188 -0.671875 3.078125 -0.796875 C 3.535156 -0.921875 3.875 -1.171875 4.09375 -1.546875 C 4.320312 -1.921875 4.4375 -2.476562 4.4375 -3.21875 L 4.4375 -18.4375 C 4.4375 -19.226562 4.332031 -19.820312 4.125 -20.21875 C 3.925781 -20.625 3.597656 -20.90625 3.140625 -21.0625 C 2.679688 -21.226562 2.003906 -21.320312 1.109375 -21.34375 L 1.109375 -21.921875 L 11.203125 -21.921875 Z M 11.203125 -21.34375 "/></g></g></g><g fill="#ffffff" fill-opacity="1"><g transform="translate(197.858228, 117.433641)"><g><path d="M 20.96875 -5.75 L 20.96875 -18.890625 C 20.96875 -19.847656 20.796875 -20.488281 20.453125 -20.8125 C 20.109375 -21.144531 19.476562 -21.320312 18.5625 -21.34375 L 17.765625 -21.34375 L 17.765625 -21.921875 L 25.84375 -21.921875 L 25.84375 -21.34375 L 25.171875 -21.34375 C 24.316406 -21.34375 23.707031 -21.289062 23.34375 -21.1875 C 22.988281 -21.082031 22.738281 -20.832031 22.59375 -20.4375 C 22.457031 -20.039062 22.390625 -19.394531 22.390625 -18.5 L 22.390625 0.25 L 21.953125 0.25 L 6.28125 -17.390625 L 6.28125 -3.703125 C 6.28125 -2.515625 6.519531 -1.695312 7 -1.25 C 7.476562 -0.800781 8.300781 -0.578125 9.46875 -0.578125 L 9.46875 0 L 1.5625 0 L 1.5625 -0.578125 L 1.75 -0.578125 C 2.769531 -0.578125 3.546875 -0.757812 4.078125 -1.125 C 4.609375 -1.5 4.875 -2.1875 4.875 -3.1875 L 4.875 -18.796875 C 4.320312 -19.734375 3.695312 -20.390625 3 -20.765625 C 2.300781 -21.148438 1.441406 -21.34375 0.421875 -21.34375 L 0.421875 -21.921875 L 6.796875 -21.921875 Z M 20.96875 -5.75 "/></g></g></g><g fill="#ffffff" fill-opacity="1"><g transform="translate(224.117725, 117.433641)"><g><path d="M 8.046875 -22.390625 C 8.765625 -22.390625 9.390625 -22.320312 9.921875 -22.1875 C 10.453125 -22.050781 10.992188 -21.863281 11.546875 -21.625 C 11.828125 -21.519531 12.097656 -21.425781 12.359375 -21.34375 C 12.628906 -21.257812 12.867188 -21.21875 13.078125 -21.21875 C 13.585938 -21.21875 13.992188 -21.609375 14.296875 -22.390625 L 14.90625 -22.390625 L 14.90625 -15.125 L 14.296875 -15.125 C 14.191406 -16.25 13.851562 -17.273438 13.28125 -18.203125 C 12.71875 -19.128906 12.015625 -19.859375 11.171875 -20.390625 C 10.335938 -20.921875 9.441406 -21.1875 8.484375 -21.1875 C 7.441406 -21.1875 6.546875 -20.867188 5.796875 -20.234375 C 5.054688 -19.609375 4.6875 -18.851562 4.6875 -17.96875 C 4.6875 -16.925781 5.195312 -16.019531 6.21875 -15.25 C 6.945312 -14.71875 7.957031 -14.082031 9.25 -13.34375 C 10.394531 -12.632812 11.347656 -12.023438 12.109375 -11.515625 C 12.878906 -11.003906 13.597656 -10.453125 14.265625 -9.859375 C 14.859375 -9.285156 15.328125 -8.625 15.671875 -7.875 C 16.023438 -7.132812 16.203125 -6.367188 16.203125 -5.578125 C 16.203125 -4.492188 15.90625 -3.484375 15.3125 -2.546875 C 14.71875 -1.617188 13.90625 -0.878906 12.875 -0.328125 C 11.84375 0.210938 10.707031 0.484375 9.46875 0.484375 C 8.6875 0.484375 7.992188 0.410156 7.390625 0.265625 C 6.785156 0.128906 6.148438 -0.0507812 5.484375 -0.28125 C 4.765625 -0.539062 4.222656 -0.671875 3.859375 -0.671875 C 3.285156 -0.671875 2.847656 -0.285156 2.546875 0.484375 L 1.984375 0.484375 L 1.984375 -6.890625 L 2.546875 -6.890625 C 2.910156 -4.992188 3.628906 -3.492188 4.703125 -2.390625 C 5.773438 -1.285156 7.164062 -0.734375 8.875 -0.734375 C 10.082031 -0.734375 11.078125 -1.0625 11.859375 -1.71875 C 12.648438 -2.382812 13.046875 -3.21875 13.046875 -4.21875 C 13.046875 -4.726562 12.945312 -5.191406 12.75 -5.609375 C 12.5625 -6.035156 12.25 -6.492188 11.8125 -6.984375 C 11.40625 -7.410156 10.828125 -7.875 10.078125 -8.375 C 9.335938 -8.875 8.347656 -9.492188 7.109375 -10.234375 C 6.066406 -10.878906 5.269531 -11.382812 4.71875 -11.75 C 4.164062 -12.125 3.753906 -12.453125 3.484375 -12.734375 C 2.390625 -13.835938 1.84375 -15.164062 1.84375 -16.71875 C 1.84375 -17.78125 2.113281 -18.742188 2.65625 -19.609375 C 3.207031 -20.472656 3.945312 -21.148438 4.875 -21.640625 C 5.8125 -22.140625 6.867188 -22.390625 8.046875 -22.390625 Z M 8.046875 -22.390625 "/></g></g></g></svg>