<svg xmlns="http://www.w3.org/2000/svg" xmlns:xlink="http://www.w3.org/1999/xlink" width="500" zoomAndPan="magnify" viewBox="0 0 375 187.499995" height="250" preserveAspectRatio="xMidYMid meet" version="1.0"><defs><g/><clipPath id="661d2c1de0"><path d="M 346 67 L 374.5 67 L 374.5 69 L 346 69 Z M 346 67 " clip-rule="nonzero"/></clipPath><clipPath id="899f38e05f"><path d="M 0.5 66 L 28 66 L 28 68 L 0.5 68 Z M 0.5 66 " clip-rule="nonzero"/></clipPath></defs><path stroke-linecap="butt" transform="matrix(0.748005, 0, 0, 0.748005, 285.016445, 46.344989)" fill="none" stroke-linejoin="miter" d="M -0.00109691 1.00101 L 78.415797 1.00101 " stroke="#737373" stroke-width="2" stroke-opacity="1" stroke-miterlimit="4"/><path stroke-linecap="butt" transform="matrix(0.748005, 0, 0, 0.748005, 280.558626, 50.238624)" fill="none" stroke-linejoin="miter" d="M -0.000043283 1.002209 L 78.416851 1.002209 " stroke="#737373" stroke-width="2" stroke-opacity="1" stroke-miterlimit="4"/><path stroke-linecap="butt" transform="matrix(0, 0.748005, -0.748005, 0, 344.629952, 46.426473)" fill="none" stroke-linejoin="miter" d="M -0.000924548 0.998843 L 55.323302 0.998843 " stroke="#737373" stroke-width="2" stroke-opacity="1" stroke-miterlimit="4"/><path stroke-linecap="butt" transform="matrix(0.748005, 0, 0, 0.748005, 327.436526, 71.419045)" fill="none" stroke-linejoin="miter" d="M 0.00130279 1.001228 L 58.73564 1.001228 " stroke="#737373" stroke-width="2" stroke-opacity="1" stroke-miterlimit="4"/><path stroke-linecap="butt" transform="matrix(0, 0.748005, -0.748005, 0, 371.425195, 72.171347)" fill="none" stroke-linejoin="miter" d="M 0.000706125 1.001883 L 78.4176 1.001883 " stroke="#737373" stroke-width="2" stroke-opacity="1" stroke-miterlimit="4"/><path stroke-linecap="butt" transform="matrix(0, 0.748005, -0.748005, 0, 367.547313, 75.137033)" fill="none" stroke-linejoin="miter" d="M -0.000420531 0.998031 L 78.416474 0.998031 " stroke="#737373" stroke-width="2" stroke-opacity="1" stroke-miterlimit="4"/><path stroke-linecap="butt" transform="matrix(0, 0.748005, -0.748005, 0, 328.872607, 72.168695)" fill="none" stroke-linejoin="miter" d="M -0.000970497 0.999468 L 20.924475 0.999468 " stroke="#737373" stroke-width="2" stroke-opacity="1" stroke-miterlimit="4"/><path stroke-linecap="butt" transform="matrix(-0.748005, 0, 0, -0.748005, 344.523771, 88.568017)" fill="none" stroke-linejoin="miter" d="M 0.000446014 0.999598 L 22.858114 0.999598 " stroke="#737373" stroke-width="2" stroke-opacity="1" stroke-miterlimit="4"/><g clip-path="url(#661d2c1de0)"><path stroke-linecap="butt" transform="matrix(-0.748005, 0, 0, -0.748005, 374.490937, 68.841584)" fill="none" stroke-linejoin="miter" d="M -0.00167128 0.999771 L 36.935109 0.999771 " stroke="#737373" stroke-width="2" stroke-opacity="1" stroke-miterlimit="4"/></g><path stroke-linecap="butt" transform="matrix(0, 0.748005, -0.748005, 0, 348.307333, 43.708789)" fill="none" stroke-linejoin="miter" d="M -0.00234987 1.000981 L 33.069986 1.000981 " stroke="#737373" stroke-width="2" stroke-opacity="1" stroke-miterlimit="4"/><path stroke-linecap="butt" transform="matrix(0, -0.748005, 0.748005, 0, 4.194639, 129.327511)" fill="none" stroke-linejoin="miter" d="M -0.000820625 0.998344 L 78.416074 0.998344 " stroke="#737373" stroke-width="2" stroke-opacity="1" stroke-miterlimit="4"/><path stroke-linecap="butt" transform="matrix(0, -0.748005, 0.748005, 0, 8.088274, 133.785331)" fill="none" stroke-linejoin="miter" d="M 0.000233003 0.999543 L 78.417127 0.999543 " stroke="#737373" stroke-width="2" stroke-opacity="1" stroke-miterlimit="4"/><path stroke-linecap="butt" transform="matrix(0.748005, 0, 0, 0.748005, 4.276123, 69.713988)" fill="none" stroke-linejoin="miter" d="M 0.00163218 0.998589 L 55.325858 0.998589 " stroke="#737373" stroke-width="2" stroke-opacity="1" stroke-miterlimit="4"/><path stroke-linecap="butt" transform="matrix(0, -0.748005, 0.748005, 0, 29.272493, 86.911199)" fill="none" stroke-linejoin="miter" d="M 0.00139365 0.998707 L 58.735731 0.998707 " stroke="#737373" stroke-width="2" stroke-opacity="1" stroke-miterlimit="4"/><path stroke-linecap="butt" transform="matrix(0.748005, 0, 0, 0.748005, 30.020995, 42.918766)" fill="none" stroke-linejoin="miter" d="M -0.0019572 1.001601 L 78.420159 1.001601 " stroke="#737373" stroke-width="2" stroke-opacity="1" stroke-miterlimit="4"/><path stroke-linecap="butt" transform="matrix(0.748005, 0, 0, 0.748005, 32.986692, 46.796624)" fill="none" stroke-linejoin="miter" d="M 0.00212493 0.99778 L 78.419019 0.99778 " stroke="#737373" stroke-width="2" stroke-opacity="1" stroke-miterlimit="4"/><path stroke-linecap="butt" transform="matrix(0.748005, 0, 0, 0.748005, 30.020995, 85.473999)" fill="none" stroke-linejoin="miter" d="M -0.0019572 1.000871 L 20.928711 1.000871 " stroke="#737373" stroke-width="2" stroke-opacity="1" stroke-miterlimit="4"/><path stroke-linecap="butt" transform="matrix(0, 0.748005, -0.748005, 0, 46.416141, 69.81863)" fill="none" stroke-linejoin="miter" d="M 0.00224973 1.000223 L 22.859918 1.000223 " stroke="#737373" stroke-width="2" stroke-opacity="1" stroke-miterlimit="4"/><path stroke-linecap="butt" transform="matrix(0, 0.748005, -0.748005, 0, 26.690334, 39.852128)" fill="none" stroke-linejoin="miter" d="M -0.000756203 1.001233 L 36.936024 1.001233 " stroke="#737373" stroke-width="2" stroke-opacity="1" stroke-miterlimit="4"/><g clip-path="url(#899f38e05f)"><path stroke-linecap="butt" transform="matrix(0.748005, 0, 0, 0.748005, 1.559221, 66.037383)" fill="none" stroke-linejoin="miter" d="M -0.00083884 0.99969 L 33.071497 0.99969 " stroke="#737373" stroke-width="2" stroke-opacity="1" stroke-miterlimit="4"/></g><path stroke-linecap="butt" transform="matrix(0.748005, 0, 0, 0.748005, 37.898939, 145.658379)" fill="none" stroke-linejoin="miter" d="M -0.000670237 0.999821 L 400.000691 0.999821 " stroke="#ffffff" stroke-width="2" stroke-opacity="1" stroke-miterlimit="4"/><g fill="#ffffff" fill-opacity="1"><g transform="translate(99.123622, 117.433648)"><g><path d="M 8.046875 -22.390625 C 8.765625 -22.390625 9.390625 -22.320312 9.921875 -22.1875 C 10.453125 -22.050781 10.992188 -21.863281 11.546875 -21.625 C 11.828125 -21.519531 12.097656 -21.425781 12.359375 -21.34375 C 12.628906 -21.257812 12.867188 -21.21875 13.078125 -21.21875 C 13.585938 -21.21875 13.992188 -21.609375 14.296875 -22.390625 L 14.90625 -22.390625 L 14.90625 -15.125 L 14.296875 -15.125 C 14.191406 -16.25 13.851562 -17.273438 13.28125 -18.203125 C 12.71875 -19.128906 12.015625 -19.859375 11.171875 -20.390625 C 10.335938 -20.921875 9.441406 -21.1875 8.484375 -21.1875 C 7.441406 -21.1875 6.546875 -20.867188 5.796875 -20.234375 C 5.054688 -19.609375 4.6875 -18.851562 4.6875 -17.96875 C 4.6875 -16.925781 5.195312 -16.019531 6.21875 -15.25 C 6.945312 -14.71875 7.957031 -14.082031 9.25 -13.34375 C 10.394531 -12.632812 11.347656 -12.023438 12.109375 -11.515625 C 12.878906 -11.003906 13.597656 -10.453125 14.265625 -9.859375 C 14.859375 -9.285156 15.328125 -8.625 15.671875 -7.875 C 16.023438 -7.132812 16.203125 -6.367188 16.203125 -5.578125 C 16.203125 -4.492188 15.90625 -3.484375 15.3125 -2.546875 C 14.71875 -1.617188 13.90625 -0.878906 12.875 -0.328125 C 11.84375 0.210938 10.707031 0.484375 9.46875 0.484375 C 8.6875 0.484375 7.992188 0.410156 7.390625 0.265625 C 6.785156 0.128906 6.148438 -0.0507812 5.484375 -0.28125 C 4.765625 -0.539062 4.222656 -0.671875 3.859375 -0.671875 C 3.285156 -0.671875 2.847656 -0.285156 2.546875 0.484375 L 1.984375 0.484375 L 1.984375 -6.890625 L 2.546875 -6.890625 C 2.910156 -4.992188 3.628906 -3.492188 4.703125 -2.390625 C 5.773438 -1.285156 7.164062 -0.734375 8.875 -0.734375 C 10.082031 -0.734375 11.078125 -1.0625 11.859375 -1.71875 C 12.648438 -2.382812 13.046875 -3.21875 13.046875 -4.21875 C 13.046875 -4.726562 12.945312 -5.191406 12.75 -5.609375 C 12.5625 -6.035156 12.25 -6.492188 11.8125 -6.984375 C 11.40625 -7.410156 10.828125 -7.875 10.078125 -8.375 C 9.335938 -8.875 8.347656 -9.492188 7.109375 -10.234375 C 6.066406 -10.878906 5.269531 -11.382812 4.71875 -11.75 C 4.164062 -12.125 3.753906 -12.453125 3.484375 -12.734375 C 2.390625 -13.835938 1.84375 -15.164062 1.84375 -16.71875 C 1.84375 -17.78125 2.113281 -18.742188 2.65625 -19.609375 C 3.207031 -20.472656 3.945312 -21.148438 4.875 -21.640625 C 5.8125 -22.140625 6.867188 -22.390625 8.046875 -22.390625 Z M 8.046875 -22.390625 "/></g></g></g><g fill="#ffffff" fill-opacity="1"><g transform="translate(116.736318, 117.433648)"><g><path d="M 20.484375 -16.9375 L 19.875 -16.9375 C 19.582031 -19.320312 18.296875 -20.515625 16.015625 -20.515625 L 12.34375 -20.515625 L 12.34375 -3 C 12.34375 -2.039062 12.617188 -1.394531 13.171875 -1.0625 C 13.722656 -0.738281 14.507812 -0.578125 15.53125 -0.578125 L 15.53125 0 L 5.71875 0 L 5.71875 -0.578125 C 6.84375 -0.578125 7.65625 -0.765625 8.15625 -1.140625 C 8.65625 -1.523438 8.90625 -2.21875 8.90625 -3.21875 L 8.90625 -20.515625 L 5.015625 -20.515625 C 4.015625 -20.515625 3.175781 -20.222656 2.5 -19.640625 C 1.832031 -19.054688 1.457031 -18.15625 1.375 -16.9375 L 0.796875 -16.9375 L 0.953125 -21.921875 L 20.328125 -21.921875 Z M 20.484375 -16.9375 "/></g></g></g><g fill="#ffffff" fill-opacity="1"><g transform="translate(138.018321, 117.433648)"><g><path d="M 3.671875 -4.25 L 11.84375 -22.875 L 12.40625 -22.875 L 21.03125 -3.03125 C 21.34375 -2.3125 21.640625 -1.773438 21.921875 -1.421875 C 22.210938 -1.066406 22.519531 -0.835938 22.84375 -0.734375 C 23.164062 -0.628906 23.601562 -0.578125 24.15625 -0.578125 L 24.15625 0 L 15.15625 0 L 15.15625 -0.578125 C 15.914062 -0.578125 16.488281 -0.710938 16.875 -0.984375 C 17.257812 -1.265625 17.453125 -1.640625 17.453125 -2.109375 C 17.453125 -2.515625 17.3125 -3.015625 17.03125 -3.609375 L 15.375 -7.375 L 6.546875 -7.375 L 4.71875 -3.1875 C 4.507812 -2.757812 4.40625 -2.378906 4.40625 -2.046875 C 4.40625 -1.066406 5.191406 -0.578125 6.765625 -0.578125 L 6.765625 0 L 0.453125 0 L 0.453125 -0.578125 C 0.984375 -0.640625 1.410156 -0.789062 1.734375 -1.03125 C 2.066406 -1.28125 2.363281 -1.640625 2.625 -2.109375 C 2.894531 -2.578125 3.242188 -3.289062 3.671875 -4.25 Z M 14.875 -8.578125 L 10.96875 -17.484375 L 7.078125 -8.578125 Z M 14.875 -8.578125 "/></g></g></g><g fill="#ffffff" fill-opacity="1"><g transform="translate(162.618661, 117.433648)"><g><path d="M 18.890625 -16.203125 C 18.890625 -14.867188 18.429688 -13.71875 17.515625 -12.75 C 16.597656 -11.78125 15.207031 -11.0625 13.34375 -10.59375 L 18.40625 -4.3125 C 19.019531 -3.539062 19.539062 -2.925781 19.96875 -2.46875 C 20.394531 -2.007812 20.921875 -1.59375 21.546875 -1.21875 C 22.179688 -0.851562 22.878906 -0.640625 23.640625 -0.578125 L 23.640625 0 L 17.9375 0 L 9.671875 -10.28125 L 7.5625 -10.28125 L 7.5625 -3.15625 C 7.5625 -2.21875 7.800781 -1.550781 8.28125 -1.15625 C 8.757812 -0.769531 9.507812 -0.578125 10.53125 -0.578125 L 10.65625 -0.578125 L 10.65625 0 L 1.078125 0 L 1.078125 -0.578125 C 2.097656 -0.578125 2.859375 -0.753906 3.359375 -1.109375 C 3.859375 -1.472656 4.109375 -2.125 4.109375 -3.0625 L 4.109375 -18.921875 C 4.109375 -19.773438 3.859375 -20.390625 3.359375 -20.765625 C 2.859375 -21.148438 2.097656 -21.34375 1.078125 -21.34375 L 1.078125 -21.921875 L 11.328125 -21.921875 C 13.410156 -21.921875 15.191406 -21.453125 16.671875 -20.515625 C 18.148438 -19.578125 18.890625 -18.140625 18.890625 -16.203125 Z M 7.5625 -20.234375 L 7.5625 -11.359375 L 8.359375 -11.359375 C 10.503906 -11.359375 12.128906 -11.773438 13.234375 -12.609375 C 14.347656 -13.453125 14.90625 -14.617188 14.90625 -16.109375 C 14.90625 -17.410156 14.484375 -18.515625 13.640625 -19.421875 C 12.796875 -20.335938 11.609375 -20.796875 10.078125 -20.796875 C 9.253906 -20.796875 8.414062 -20.609375 7.5625 -20.234375 Z M 7.5625 -20.234375 "/></g></g></g><g fill="#ffffff" fill-opacity="1"><g transform="translate(187.219002, 117.433648)"><g><path d="M 20.484375 -16.9375 L 19.875 -16.9375 C 19.582031 -19.320312 18.296875 -20.515625 16.015625 -20.515625 L 12.34375 -20.515625 L 12.34375 -3 C 12.34375 -2.039062 12.617188 -1.394531 13.171875 -1.0625 C 13.722656 -0.738281 14.507812 -0.578125 15.53125 -0.578125 L 15.53125 0 L 5.71875 0 L 5.71875 -0.578125 C 6.84375 -0.578125 7.65625 -0.765625 8.15625 -1.140625 C 8.65625 -1.523438 8.90625 -2.21875 8.90625 -3.21875 L 8.90625 -20.515625 L 5.015625 -20.515625 C 4.015625 -20.515625 3.175781 -20.222656 2.5 -19.640625 C 1.832031 -19.054688 1.457031 -18.15625 1.375 -16.9375 L 0.796875 -16.9375 L 0.953125 -21.921875 L 20.328125 -21.921875 Z M 20.484375 -16.9375 "/></g></g></g><g fill="#ffffff" fill-opacity="1"><g transform="translate(208.501004, 117.433648)"><g><path d="M 18.796875 -17.0625 L 18.25 -17.0625 C 18.039062 -18.28125 17.644531 -19.179688 17.0625 -19.765625 C 16.488281 -20.347656 15.691406 -20.640625 14.671875 -20.640625 L 7.75 -20.640625 L 7.75 -12.1875 L 13.4375 -12.1875 C 14.457031 -12.1875 15.175781 -12.441406 15.59375 -12.953125 C 16.019531 -13.460938 16.242188 -14.269531 16.265625 -15.375 L 16.84375 -15.375 L 16.84375 -7.65625 L 16.265625 -7.65625 C 16.265625 -8.757812 16.050781 -9.578125 15.625 -10.109375 C 15.207031 -10.640625 14.457031 -10.90625 13.375 -10.90625 L 7.75 -10.90625 L 7.75 -2.90625 C 7.75 -1.820312 8.175781 -1.28125 9.03125 -1.28125 L 14.640625 -1.28125 C 15.816406 -1.28125 16.847656 -1.632812 17.734375 -2.34375 C 18.628906 -3.050781 19.351562 -4.085938 19.90625 -5.453125 L 20.578125 -5.453125 L 18.796875 0 L 1.15625 0 L 1.15625 -0.578125 C 2.257812 -0.578125 3.0625 -0.757812 3.5625 -1.125 C 4.0625 -1.5 4.3125 -2.195312 4.3125 -3.21875 L 4.3125 -18.921875 C 4.3125 -19.773438 4.0625 -20.390625 3.5625 -20.765625 C 3.0625 -21.148438 2.257812 -21.34375 1.15625 -21.34375 L 1.15625 -21.921875 L 18.53125 -21.921875 Z M 18.796875 -17.0625 "/></g></g></g><g fill="#ffffff" fill-opacity="1"><g transform="translate(229.783007, 117.433648)"><g><path d="M 18.890625 -16.203125 C 18.890625 -14.867188 18.429688 -13.71875 17.515625 -12.75 C 16.597656 -11.78125 15.207031 -11.0625 13.34375 -10.59375 L 18.40625 -4.3125 C 19.019531 -3.539062 19.539062 -2.925781 19.96875 -2.46875 C 20.394531 -2.007812 20.921875 -1.59375 21.546875 -1.21875 C 22.179688 -0.851562 22.878906 -0.640625 23.640625 -0.578125 L 23.640625 0 L 17.9375 0 L 9.671875 -10.28125 L 7.5625 -10.28125 L 7.5625 -3.15625 C 7.5625 -2.21875 7.800781 -1.550781 8.28125 -1.15625 C 8.757812 -0.769531 9.507812 -0.578125 10.53125 -0.578125 L 10.65625 -0.578125 L 10.65625 0 L 1.078125 0 L 1.078125 -0.578125 C 2.097656 -0.578125 2.859375 -0.753906 3.359375 -1.109375 C 3.859375 -1.472656 4.109375 -2.125 4.109375 -3.0625 L 4.109375 -18.921875 C 4.109375 -19.773438 3.859375 -20.390625 3.359375 -20.765625 C 2.859375 -21.148438 2.097656 -21.34375 1.078125 -21.34375 L 1.078125 -21.921875 L 11.328125 -21.921875 C 13.410156 -21.921875 15.191406 -21.453125 16.671875 -20.515625 C 18.148438 -19.578125 18.890625 -18.140625 18.890625 -16.203125 Z M 7.5625 -20.234375 L 7.5625 -11.359375 L 8.359375 -11.359375 C 10.503906 -11.359375 12.128906 -11.773438 13.234375 -12.609375 C 14.347656 -13.453125 14.90625 -14.617188 14.90625 -16.109375 C 14.90625 -17.410156 14.484375 -18.515625 13.640625 -19.421875 C 12.796875 -20.335938 11.609375 -20.796875 10.078125 -20.796875 C 9.253906 -20.796875 8.414062 -20.609375 7.5625 -20.234375 Z M 7.5625 -20.234375 "/></g></g></g><g fill="#ffffff" fill-opacity="1"><g transform="translate(254.383348, 117.433648)"><g><path d="M 8.046875 -22.390625 C 8.765625 -22.390625 9.390625 -22.320312 9.921875 -22.1875 C 10.453125 -22.050781 10.992188 -21.863281 11.546875 -21.625 C 11.828125 -21.519531 12.097656 -21.425781 12.359375 -21.34375 C 12.628906 -21.257812 12.867188 -21.21875 13.078125 -21.21875 C 13.585938 -21.21875 13.992188 -21.609375 14.296875 -22.390625 L 14.90625 -22.390625 L 14.90625 -15.125 L 14.296875 -15.125 C 14.191406 -16.25 13.851562 -17.273438 13.28125 -18.203125 C 12.71875 -19.128906 12.015625 -19.859375 11.171875 -20.390625 C 10.335938 -20.921875 9.441406 -21.1875 8.484375 -21.1875 C 7.441406 -21.1875 6.546875 -20.867188 5.796875 -20.234375 C 5.054688 -19.609375 4.6875 -18.851562 4.6875 -17.96875 C 4.6875 -16.925781 5.195312 -16.019531 6.21875 -15.25 C 6.945312 -14.71875 7.957031 -14.082031 9.25 -13.34375 C 10.394531 -12.632812 11.347656 -12.023438 12.109375 -11.515625 C 12.878906 -11.003906 13.597656 -10.453125 14.265625 -9.859375 C 14.859375 -9.285156 15.328125 -8.625 15.671875 -7.875 C 16.023438 -7.132812 16.203125 -6.367188 16.203125 -5.578125 C 16.203125 -4.492188 15.90625 -3.484375 15.3125 -2.546875 C 14.71875 -1.617188 13.90625 -0.878906 12.875 -0.328125 C 11.84375 0.210938 10.707031 0.484375 9.46875 0.484375 C 8.6875 0.484375 7.992188 0.410156 7.390625 0.265625 C 6.785156 0.128906 6.148438 -0.0507812 5.484375 -0.28125 C 4.765625 -0.539062 4.222656 -0.671875 3.859375 -0.671875 C 3.285156 -0.671875 2.847656 -0.285156 2.546875 0.484375 L 1.984375 0.484375 L 1.984375 -6.890625 L 2.546875 -6.890625 C 2.910156 -4.992188 3.628906 -3.492188 4.703125 -2.390625 C 5.773438 -1.285156 7.164062 -0.734375 8.875 -0.734375 C 10.082031 -0.734375 11.078125 -1.0625 11.859375 -1.71875 C 12.648438 -2.382812 13.046875 -3.21875 13.046875 -4.21875 C 13.046875 -4.726562 12.945312 -5.191406 12.75 -5.609375 C 12.5625 -6.035156 12.25 -6.492188 11.8125 -6.984375 C 11.40625 -7.410156 10.828125 -7.875 10.078125 -8.375 C 9.335938 -8.875 8.347656 -9.492188 7.109375 -10.234375 C 6.066406 -10.878906 5.269531 -11.382812 4.71875 -11.75 C 4.164062 -12.125 3.753906 -12.453125 3.484375 -12.734375 C 2.390625 -13.835938 1.84375 -15.164062 1.84375 -16.71875 C 1.84375 -17.78125 2.113281 -18.742188 2.65625 -19.609375 C 3.207031 -20.472656 3.945312 -21.148438 4.875 -21.640625 C 5.8125 -22.140625 6.867188 -22.390625 8.046875 -22.390625 Z M 8.046875 -22.390625 "/></g></g></g></svg>